<svg xmlns="http://www.w3.org/2000/svg" width="700" height="72" viewBox="0 0 700 72">
<rect width="700" height="72" fill="#1e1e2e" rx="6"/>
<path d="M14.94425803256361 27.627654305701725Q14.231387358385438 27.627654305701725 13.715693679192718 27.111960626509006Q13.2 26.596266947316288 13.2 25.883396273138118V17.13177118801461Q13.2 16.403733052683712 13.715693679192718 15.888039373490994Q14.231387358385438 15.372345694298273 14.94425803256361 15.372345694298273H18.447941558843556Q19.29731938339627 15.372345694298273 19.843347984894447 16.085216368476445L20.374209125239894 16.782919581501886Q20.63205596483625 17.13177118801461 21.071912338265335 17.13177118801461H25.455308611403453Q26.18334674673435 17.13177118801461 26.69904042592707 17.64746486720733Q27.21473410511979 18.163158546400048 27.199566643967064 18.87602922057822V25.883396273138118Q27.21473410511979 26.596266947316288 26.69904042592707 27.111960626509006Q26.18334674673435 27.627654305701725 25.455308611403453 27.627654305701725Z" fill="#5fd7d7"/>
<path d="M1500.0 1867.142857142857Q1403.0 1867.142857142857 1343.5 1808.642857142857Q1284.0 1750.142857142857 1284.0 1647.142857142857V1517.142857142857Q1284.0 1414.142857142857 1343.5 1355.642857142857Q1403.0 1297.142857142857 1500.0 1297.142857142857Q1565.0 1297.142857142857 1613.5 1323.142857142857Q1662.0 1349.142857142857 1689.0 1396.142857142857Q1716.0 1443.142857142857 1716.0 1507.142857142857V1605.142857142857H1372.0V1657.142857142857Q1372.0 1718.142857142857 1407.0 1753.642857142857Q1442.0 1789.142857142857 1500.0 1789.142857142857Q1550.0 1789.142857142857 1582.5 1769.642857142857Q1615.0 1750.142857142857 1622.0 1717.142857142857H1712.0Q1703.0 1786.142857142857 1645.0 1826.642857142857Q1587.0 1867.142857142857 1500.0 1867.142857142857ZM1372.0 1535.142857142857H1628.0V1507.142857142857Q1628.0 1442.142857142857 1594.5 1406.642857142857Q1561.0 1371.142857142857 1500.0 1371.142857142857Q1439.0 1371.142857142857 1405.5 1406.642857142857Q1372.0 1442.142857142857 1372.0 1507.142857142857Z" fill="#dadada" transform="translate(16,0) scale(0.014000)"/>
<path d="M1892.0 1857.142857142857V1307.142857142857H1982.0V1412.142857142857H1983.0Q1990.0 1357.142857142857 2028.0 1327.142857142857Q2066.0 1297.142857142857 2129.0 1297.142857142857Q2212.0 1297.142857142857 2261.0 1348.142857142857Q2310.0 1399.142857142857 2310.0 1487.142857142857V1857.142857142857H2220.0V1503.142857142857Q2220.0 1440.142857142857 2188.5 1406.642857142857Q2157.0 1373.142857142857 2103.0 1373.142857142857Q2047.0 1373.142857142857 2014.5 1408.142857142857Q1982.0 1443.142857142857 1982.0 1507.142857142857V1857.142857142857Z" fill="#dadada" transform="translate(16,0) scale(0.014000)"/>
<path d="M2641.0 1857.142857142857 2454.0 1307.142857142857H2551.0L2671.0 1677.142857142857Q2682.0 1710.142857142857 2690.0 1740.642857142857Q2698.0 1771.142857142857 2702.0 1788.142857142857Q2707.0 1771.142857142857 2714.0 1740.642857142857Q2721.0 1710.142857142857 2731.0 1677.142857142857L2851.0 1307.142857142857H2946.0L2759.0 1857.142857142857Z" fill="#dadada" transform="translate(16,0) scale(0.014000)"/>
<path d="M3085.0 1857.142857142857V1775.142857142857H3280.0V1389.142857142857H3105.0V1307.142857142857H3370.0V1775.142857142857H3555.0V1857.142857142857ZM3315.0 1208.142857142857Q3282.0 1208.142857142857 3263.0 1191.142857142857Q3244.0 1174.142857142857 3244.0 1145.142857142857Q3244.0 1115.142857142857 3263.0 1097.642857142857Q3282.0 1080.142857142857 3315.0 1080.142857142857Q3348.0 1080.142857142857 3367.0 1097.642857142857Q3386.0 1115.142857142857 3386.0 1145.142857142857Q3386.0 1174.142857142857 3367.0 1191.142857142857Q3348.0 1208.142857142857 3315.0 1208.142857142857Z" fill="#dadada" transform="translate(16,0) scale(0.014000)"/>
<path d="M3712.0 1857.142857142857V1307.142857142857H3802.0V1412.142857142857H3804.0Q3811.0 1359.142857142857 3849.0 1328.142857142857Q3887.0 1297.142857142857 3951.0 1297.142857142857Q4037.0 1297.142857142857 4083.5 1348.642857142857Q4130.0 1400.142857142857 4130.0 1495.142857142857V1542.142857142857H4040.0V1495.142857142857Q4040.0 1375.142857142857 3923.0 1375.142857142857Q3864.0 1375.142857142857 3833.0 1409.142857142857Q3802.0 1443.142857142857 3802.0 1507.142857142857V1857.142857142857Z" fill="#dadada" transform="translate(16,0) scale(0.014000)"/>
<path d="M4500.0 1865.142857142857Q4401.0 1865.142857142857 4342.5 1807.142857142857Q4284.0 1749.142857142857 4284.0 1645.142857142857V1519.142857142857Q4284.0 1414.142857142857 4342.0 1356.642857142857Q4400.0 1299.142857142857 4500.0 1299.142857142857Q4600.0 1299.142857142857 4658.0 1356.642857142857Q4716.0 1414.142857142857 4716.0 1519.142857142857V1645.142857142857Q4716.0 1749.142857142857 4657.5 1807.142857142857Q4599.0 1865.142857142857 4500.0 1865.142857142857ZM4500.0 1785.142857142857Q4559.0 1785.142857142857 4592.5 1752.142857142857Q4626.0 1719.142857142857 4626.0 1655.142857142857V1509.142857142857Q4626.0 1445.142857142857 4592.5 1412.142857142857Q4559.0 1379.142857142857 4500.0 1379.142857142857Q4442.0 1379.142857142857 4408.0 1412.142857142857Q4374.0 1445.142857142857 4374.0 1509.142857142857V1655.142857142857Q4374.0 1719.142857142857 4408.0 1752.142857142857Q4442.0 1785.142857142857 4500.0 1785.142857142857Z" fill="#dadada" transform="translate(16,0) scale(0.014000)"/>
<path d="M4892.0 1857.142857142857V1307.142857142857H4982.0V1412.142857142857H4983.0Q4990.0 1357.142857142857 5028.0 1327.142857142857Q5066.0 1297.142857142857 5129.0 1297.142857142857Q5212.0 1297.142857142857 5261.0 1348.142857142857Q5310.0 1399.142857142857 5310.0 1487.142857142857V1857.142857142857H5220.0V1503.142857142857Q5220.0 1440.142857142857 5188.5 1406.642857142857Q5157.0 1373.142857142857 5103.0 1373.142857142857Q5047.0 1373.142857142857 5014.5 1408.142857142857Q4982.0 1443.142857142857 4982.0 1507.142857142857V1857.142857142857Z" fill="#dadada" transform="translate(16,0) scale(0.014000)"/>
<path d="M5460.0 1857.142857142857V1307.142857142857H5538.0V1380.142857142857H5540.0Q5545.0 1343.142857142857 5569.5 1320.142857142857Q5594.0 1297.142857142857 5632.0 1297.142857142857Q5668.0 1297.142857142857 5693.0 1318.142857142857Q5718.0 1339.142857142857 5729.0 1375.142857142857H5730.0Q5737.0 1339.142857142857 5761.5 1318.142857142857Q5786.0 1297.142857142857 5824.0 1297.142857142857Q5877.0 1297.142857142857 5908.5 1336.642857142857Q5940.0 1376.142857142857 5940.0 1439.142857142857V1857.142857142857H5856.0V1438.142857142857Q5856.0 1405.142857142857 5840.0 1385.642857142857Q5824.0 1366.142857142857 5796.0 1366.142857142857Q5769.0 1366.142857142857 5753.0 1385.142857142857Q5737.0 1404.142857142857 5737.0 1437.142857142857V1857.142857142857H5663.0V1438.142857142857Q5663.0 1405.142857142857 5647.0 1385.642857142857Q5631.0 1366.142857142857 5604.0 1366.142857142857Q5576.0 1366.142857142857 5560.0 1385.142857142857Q5544.0 1404.142857142857 5544.0 1437.142857142857V1857.142857142857Z" fill="#dadada" transform="translate(16,0) scale(0.014000)"/>
<path d="M6300.0 1867.142857142857Q6203.0 1867.142857142857 6143.5 1808.642857142857Q6084.0 1750.142857142857 6084.0 1647.142857142857V1517.142857142857Q6084.0 1414.142857142857 6143.5 1355.642857142857Q6203.0 1297.142857142857 6300.0 1297.142857142857Q6365.0 1297.142857142857 6413.5 1323.142857142857Q6462.0 1349.142857142857 6489.0 1396.142857142857Q6516.0 1443.142857142857 6516.0 1507.142857142857V1605.142857142857H6172.0V1657.142857142857Q6172.0 1718.142857142857 6207.0 1753.642857142857Q6242.0 1789.142857142857 6300.0 1789.142857142857Q6350.0 1789.142857142857 6382.5 1769.642857142857Q6415.0 1750.142857142857 6422.0 1717.142857142857H6512.0Q6503.0 1786.142857142857 6445.0 1826.642857142857Q6387.0 1867.142857142857 6300.0 1867.142857142857ZM6172.0 1535.142857142857H6428.0V1507.142857142857Q6428.0 1442.142857142857 6394.5 1406.642857142857Q6361.0 1371.142857142857 6300.0 1371.142857142857Q6239.0 1371.142857142857 6205.5 1406.642857142857Q6172.0 1442.142857142857 6172.0 1507.142857142857Z" fill="#dadada" transform="translate(16,0) scale(0.014000)"/>
<path d="M6692.0 1857.142857142857V1307.142857142857H6782.0V1412.142857142857H6783.0Q6790.0 1357.142857142857 6828.0 1327.142857142857Q6866.0 1297.142857142857 6929.0 1297.142857142857Q7012.0 1297.142857142857 7061.0 1348.142857142857Q7110.0 1399.142857142857 7110.0 1487.142857142857V1857.142857142857H7020.0V1503.142857142857Q7020.0 1440.142857142857 6988.5 1406.642857142857Q6957.0 1373.142857142857 6903.0 1373.142857142857Q6847.0 1373.142857142857 6814.5 1408.142857142857Q6782.0 1443.142857142857 6782.0 1507.142857142857V1857.142857142857Z" fill="#dadada" transform="translate(16,0) scale(0.014000)"/>
<path d="M7555.0 1857.142857142857Q7487.0 1857.142857142857 7446.0 1817.642857142857Q7405.0 1778.142857142857 7405.0 1712.142857142857V1389.142857142857H7247.0V1307.142857142857H7405.0V1152.142857142857H7495.0V1307.142857142857H7720.0V1389.142857142857H7495.0V1712.142857142857Q7495.0 1740.142857142857 7511.5 1757.642857142857Q7528.0 1775.142857142857 7555.0 1775.142857142857H7715.0V1857.142857142857Z" fill="#dadada" transform="translate(16,0) scale(0.014000)"/>
<path d="M8650.0 2257.142857142857V737.1428571428571H8750.0V2257.142857142857Z" fill="#bcbcbc" transform="translate(16,0) scale(0.014000)"/>
<!-- nf-fa-cube (U+F1B2), Font Awesome 4.7 by Dave Gandy, https://fontawesome.io / SIL OFL 1.1 https://openfontlicense.org/ -->
<path id="model-icon" d="M896 -93l640 349v636l-640 -233v-752zM832 772l698 254l-698 254l-698 -254zM1664 1024v-768q0 -35 -18 -65t-49 -47l-704 -384q-28 -16 -61 -16t-61 16l-704 384q-31 17 -49 47t-18 65v768q0 40 23 73t61 47l704 256q22 8 44 8t44 -8l704 -256q38 -14 61 -47t23 -73z" fill="#5fd7d7" transform="translate(148.1,26) scale(0.0078125,-0.0078125)"/>
<path d="M10961.0 2037.142857142857V1955.142857142857H11116.0Q11163.0 1955.142857142857 11190.0 1928.642857142857Q11217.0 1902.142857142857 11217.0 1857.142857142857V1807.142857142857L11219.0 1717.142857142857H11216.0Q11208.0 1766.142857142857 11169.0 1792.642857142857Q11130.0 1819.142857142857 11071.0 1819.142857142857Q10986.0 1819.142857142857 10937.0 1765.142857142857Q10888.0 1711.142857142857 10888.0 1617.142857142857V1501.142857142857Q10888.0 1407.142857142857 10937.0 1352.142857142857Q10986.0 1297.142857142857 11071.0 1297.142857142857Q11130.0 1297.142857142857 11169.0 1325.142857142857Q11208.0 1353.142857142857 11216.0 1402.142857142857H11218.0V1307.142857142857H11307.0V1857.142857142857Q11307.0 1940.142857142857 11255.5 1988.642857142857Q11204.0 2037.142857142857 11115.0 2037.142857142857ZM11098.0 1744.142857142857Q11154.0 1744.142857142857 11186.0 1709.142857142857Q11218.0 1674.142857142857 11218.0 1612.142857142857V1507.142857142857Q11218.0 1445.142857142857 11186.0 1410.142857142857Q11154.0 1375.142857142857 11098.0 1375.142857142857Q11041.0 1375.142857142857 11009.5 1408.142857142857Q10978.0 1441.142857142857 10978.0 1497.142857142857V1622.142857142857Q10978.0 1678.142857142857 11009.5 1711.142857142857Q11041.0 1744.142857142857 11098.0 1744.142857142857Z" fill="#dadada" transform="translate(16,0) scale(0.014000)"/>
<path d="M11492.0 2037.142857142857V1307.142857142857H11582.0V1412.142857142857H11583.0Q11590.0 1358.142857142857 11630.0 1327.642857142857Q11670.0 1297.142857142857 11732.0 1297.142857142857Q11815.0 1297.142857142857 11864.0 1351.642857142857Q11913.0 1406.142857142857 11913.0 1501.142857142857V1662.142857142857Q11913.0 1757.142857142857 11864.0 1812.142857142857Q11815.0 1867.142857142857 11732.0 1867.142857142857Q11670.0 1867.142857142857 11630.0 1836.142857142857Q11590.0 1805.142857142857 11583.0 1752.142857142857H11580.0L11582.0 1877.142857142857V2037.142857142857ZM11702.0 1789.142857142857Q11759.0 1789.142857142857 11791.0 1759.142857142857Q11823.0 1729.142857142857 11823.0 1662.142857142857V1502.142857142857Q11823.0 1434.142857142857 11791.0 1404.642857142857Q11759.0 1375.142857142857 11702.0 1375.142857142857Q11647.0 1375.142857142857 11614.5 1410.142857142857Q11582.0 1445.142857142857 11582.0 1507.142857142857V1657.142857142857Q11582.0 1719.142857142857 11614.5 1754.142857142857Q11647.0 1789.142857142857 11702.0 1789.142857142857Z" fill="#dadada" transform="translate(16,0) scale(0.014000)"/>
<path d="M12355.0 1857.142857142857Q12287.0 1857.142857142857 12246.0 1817.642857142857Q12205.0 1778.142857142857 12205.0 1712.142857142857V1389.142857142857H12047.0V1307.142857142857H12205.0V1152.142857142857H12295.0V1307.142857142857H12520.0V1389.142857142857H12295.0V1712.142857142857Q12295.0 1740.142857142857 12311.5 1757.642857142857Q12328.0 1775.142857142857 12355.0 1775.142857142857H12515.0V1857.142857142857Z" fill="#dadada" transform="translate(16,0) scale(0.014000)"/>
<path d="M12740.0 1567.142857142857V1487.142857142857H13060.0V1567.142857142857Z" fill="#dadada" transform="translate(16,0) scale(0.014000)"/>
<path d="M13501.0 1867.142857142857Q13431.0 1867.142857142857 13377.5 1837.642857142857Q13324.0 1808.142857142857 13294.0 1755.642857142857Q13264.0 1703.142857142857 13264.0 1634.142857142857Q13264.0 1586.142857142857 13282.0 1535.642857142857Q13300.0 1485.142857142857 13331.0 1430.142857142857L13500.0 1127.142857142857H13600.0L13420.0 1440.142857142857L13423.0 1442.142857142857Q13436.0 1425.142857142857 13462.0 1416.142857142857Q13488.0 1407.142857142857 13519.0 1407.142857142857Q13584.0 1407.142857142857 13632.5 1435.642857142857Q13681.0 1464.142857142857 13708.5 1514.142857142857Q13736.0 1564.142857142857 13736.0 1630.142857142857Q13736.0 1700.142857142857 13706.0 1753.642857142857Q13676.0 1807.142857142857 13623.5 1837.142857142857Q13571.0 1867.142857142857 13501.0 1867.142857142857ZM13500.0 1787.142857142857Q13565.0 1787.142857142857 13605.5 1744.142857142857Q13646.0 1701.142857142857 13646.0 1632.142857142857Q13646.0 1563.142857142857 13605.5 1520.142857142857Q13565.0 1477.142857142857 13500.0 1477.142857142857Q13435.0 1477.142857142857 13394.5 1520.142857142857Q13354.0 1563.142857142857 13354.0 1632.142857142857Q13354.0 1701.142857142857 13394.5 1744.142857142857Q13435.0 1787.142857142857 13500.0 1787.142857142857Z" fill="#dadada" transform="translate(16,0) scale(0.014000)"/>
<path d="M14100.0 1867.142857142857Q14063.0 1867.142857142857 14040.5 1845.142857142857Q14018.0 1823.142857142857 14018.0 1788.142857142857Q14018.0 1751.142857142857 14040.5 1728.142857142857Q14063.0 1705.142857142857 14100.0 1705.142857142857Q14137.0 1705.142857142857 14159.5 1728.142857142857Q14182.0 1751.142857142857 14182.0 1788.142857142857Q14182.0 1823.142857142857 14159.5 1845.142857142857Q14137.0 1867.142857142857 14100.0 1867.142857142857Z" fill="#dadada" transform="translate(16,0) scale(0.014000)"/>
<path d="M14490.0 1857.142857142857V1775.142857142857H14688.0V1205.142857142857L14490.0 1353.142857142857V1250.142857142857L14655.0 1127.142857142857H14778.0V1775.142857142857H14940.0V1857.142857142857Z" fill="#dadada" transform="translate(16,0) scale(0.014000)"/>
<path d="M15140.0 1567.142857142857V1487.142857142857H15460.0V1567.142857142857Z" fill="#dadada" transform="translate(16,0) scale(0.014000)"/>
<path d="M15878.0 1865.142857142857Q15786.0 1865.142857142857 15735.5 1823.642857142857Q15685.0 1782.142857142857 15685.0 1706.142857142857H15775.0Q15775.0 1744.142857142857 15802.0 1765.642857142857Q15829.0 1787.142857142857 15878.0 1787.142857142857H15922.0Q15972.0 1787.142857142857 15999.5 1765.142857142857Q16027.0 1743.142857142857 16027.0 1703.142857142857Q16027.0 1632.142857142857 15962.0 1623.142857142857L15810.0 1601.142857142857Q15754.0 1593.142857142857 15723.0 1554.642857142857Q15692.0 1516.142857142857 15692.0 1453.142857142857Q15692.0 1381.142857142857 15741.5 1340.142857142857Q15791.0 1299.142857142857 15878.0 1299.142857142857H15922.0Q16002.0 1299.142857142857 16052.5 1338.642857142857Q16103.0 1378.142857142857 16107.0 1442.142857142857H16016.0Q16014.0 1413.142857142857 15988.5 1394.142857142857Q15963.0 1375.142857142857 15922.0 1375.142857142857H15878.0Q15832.0 1375.142857142857 15806.0 1396.142857142857Q15780.0 1417.142857142857 15780.0 1453.142857142857Q15780.0 1511.142857142857 15833.0 1519.142857142857L15975.0 1539.142857142857Q16115.0 1559.142857142857 16115.0 1703.142857142857Q16115.0 1780.142857142857 16064.5 1822.642857142857Q16014.0 1865.142857142857 15922.0 1865.142857142857Z" fill="#dadada" transform="translate(16,0) scale(0.014000)"/>
<path d="M16500.0 1865.142857142857Q16401.0 1865.142857142857 16342.5 1807.142857142857Q16284.0 1749.142857142857 16284.0 1645.142857142857V1519.142857142857Q16284.0 1414.142857142857 16342.0 1356.642857142857Q16400.0 1299.142857142857 16500.0 1299.142857142857Q16600.0 1299.142857142857 16658.0 1356.642857142857Q16716.0 1414.142857142857 16716.0 1519.142857142857V1645.142857142857Q16716.0 1749.142857142857 16657.5 1807.142857142857Q16599.0 1865.142857142857 16500.0 1865.142857142857ZM16500.0 1785.142857142857Q16559.0 1785.142857142857 16592.5 1752.142857142857Q16626.0 1719.142857142857 16626.0 1655.142857142857V1509.142857142857Q16626.0 1445.142857142857 16592.5 1412.142857142857Q16559.0 1379.142857142857 16500.0 1379.142857142857Q16442.0 1379.142857142857 16408.0 1412.142857142857Q16374.0 1445.142857142857 16374.0 1509.142857142857V1655.142857142857Q16374.0 1719.142857142857 16408.0 1752.142857142857Q16442.0 1785.142857142857 16500.0 1785.142857142857Z" fill="#dadada" transform="translate(16,0) scale(0.014000)"/>
<path d="M17180.0 1857.142857142857Q17107.0 1857.142857142857 17063.5 1814.642857142857Q17020.0 1772.142857142857 17020.0 1702.142857142857V1209.142857142857H16830.0V1127.142857142857H17110.0V1702.142857142857Q17110.0 1736.142857142857 17129.0 1755.642857142857Q17148.0 1775.142857142857 17180.0 1775.142857142857H17350.0V1857.142857142857Z" fill="#dadada" transform="translate(16,0) scale(0.014000)"/>
<!-- nf-fa-lightbulb_o (U+F0EB), Font Awesome 4.7 by Dave Gandy, https://fontawesome.io / SIL OFL 1.1 https://openfontlicense.org/ -->
<path id="thinking-icon" d="M736 960q0 -13 -9.5 -22.5t-22.5 -9.5t-22.5 9.5t-9.5 22.5q0 46 -54 71t-106 25q-13 0 -22.5 9.5t-9.5 22.5t9.5 22.5t22.5 9.5q50 0 99.5 -16t87 -54t37.5 -90zM896 960q0 72 -34.5 134t-90 101.5t-123 62t-136.5 22.5t-136.5 -22.5t-123 -62t-90 -101.5t-34.5 -134q0 -101 68 -180q10 -11 30.5 -33t30.5 -33q128 -153 141 -298h228q13 145 141 298q10 11 30.5 33t30.5 33q68 79 68 180zM1024 960q0 -155 -103 -268q-45 -49 -74.5 -87t-59.5 -95.5t-34 -107.5q47 -28 47 -82q0 -37 -25 -64q25 -27 25 -64q0 -52 -45 -81q13 -23 13 -47q0 -46 -31.5 -71t-77.5 -25q-20 -44 -60 -70t-87 -26t-87 26t-60 70q-46 0 -77.5 25t-31.5 71q0 24 13 47q-45 29 -45 81q0 37 25 64q-25 27 -25 64q0 54 47 82q-4 50 -34 107.5t-59.5 95.5t-74.5 87q-103 113 -103 268q0 99 44.5 184.5t117 142t164 89t186.5 32.5t186.5 -32.5t164 -89t117 -142t44.5 -184.5z" fill="#5fd7d7" transform="translate(267.893,26.885) scale(0.00841346,-0.00841346)"/>
<path d="M19260.0 1857.142857142857V1307.142857142857H19338.0V1380.142857142857H19340.0Q19345.0 1343.142857142857 19369.5 1320.142857142857Q19394.0 1297.142857142857 19432.0 1297.142857142857Q19468.0 1297.142857142857 19493.0 1318.142857142857Q19518.0 1339.142857142857 19529.0 1375.142857142857H19530.0Q19537.0 1339.142857142857 19561.5 1318.142857142857Q19586.0 1297.142857142857 19624.0 1297.142857142857Q19677.0 1297.142857142857 19708.5 1336.642857142857Q19740.0 1376.142857142857 19740.0 1439.142857142857V1857.142857142857H19656.0V1438.142857142857Q19656.0 1405.142857142857 19640.0 1385.642857142857Q19624.0 1366.142857142857 19596.0 1366.142857142857Q19569.0 1366.142857142857 19553.0 1385.142857142857Q19537.0 1404.142857142857 19537.0 1437.142857142857V1857.142857142857H19463.0V1438.142857142857Q19463.0 1405.142857142857 19447.0 1385.642857142857Q19431.0 1366.142857142857 19404.0 1366.142857142857Q19376.0 1366.142857142857 19360.0 1385.142857142857Q19344.0 1404.142857142857 19344.0 1437.142857142857V1857.142857142857Z" fill="#ffdf87" transform="translate(16,0) scale(0.014000)"/>
<path d="M20100.0 1867.142857142857Q20003.0 1867.142857142857 19943.5 1808.642857142857Q19884.0 1750.142857142857 19884.0 1647.142857142857V1517.142857142857Q19884.0 1414.142857142857 19943.5 1355.642857142857Q20003.0 1297.142857142857 20100.0 1297.142857142857Q20165.0 1297.142857142857 20213.5 1323.142857142857Q20262.0 1349.142857142857 20289.0 1396.142857142857Q20316.0 1443.142857142857 20316.0 1507.142857142857V1605.142857142857H19972.0V1657.142857142857Q19972.0 1718.142857142857 20007.0 1753.642857142857Q20042.0 1789.142857142857 20100.0 1789.142857142857Q20150.0 1789.142857142857 20182.5 1769.642857142857Q20215.0 1750.142857142857 20222.0 1717.142857142857H20312.0Q20303.0 1786.142857142857 20245.0 1826.642857142857Q20187.0 1867.142857142857 20100.0 1867.142857142857ZM19972.0 1535.142857142857H20228.0V1507.142857142857Q20228.0 1442.142857142857 20194.5 1406.642857142857Q20161.0 1371.142857142857 20100.0 1371.142857142857Q20039.0 1371.142857142857 20005.5 1406.642857142857Q19972.0 1442.142857142857 19972.0 1507.142857142857Z" fill="#ffdf87" transform="translate(16,0) scale(0.014000)"/>
<path d="M20668.0 1867.142857142857Q20586.0 1867.142857142857 20536.5 1812.142857142857Q20487.0 1757.142857142857 20487.0 1663.142857142857V1502.142857142857Q20487.0 1407.142857142857 20536.0 1352.142857142857Q20585.0 1297.142857142857 20668.0 1297.142857142857Q20730.0 1297.142857142857 20770.5 1328.142857142857Q20811.0 1359.142857142857 20819.0 1412.142857142857H20820.0L20818.0 1287.142857142857V1127.142857142857H20908.0V1857.142857142857H20818.0V1752.142857142857H20817.0Q20810.0 1806.142857142857 20770.0 1836.642857142857Q20730.0 1867.142857142857 20668.0 1867.142857142857ZM20698.0 1789.142857142857Q20754.0 1789.142857142857 20786.0 1754.142857142857Q20818.0 1719.142857142857 20818.0 1657.142857142857V1507.142857142857Q20818.0 1445.142857142857 20786.0 1410.142857142857Q20754.0 1375.142857142857 20698.0 1375.142857142857Q20641.0 1375.142857142857 20609.0 1404.642857142857Q20577.0 1434.142857142857 20577.0 1502.142857142857V1662.142857142857Q20577.0 1729.142857142857 20609.0 1759.142857142857Q20641.0 1789.142857142857 20698.0 1789.142857142857Z" fill="#ffdf87" transform="translate(16,0) scale(0.014000)"/>
<path d="M21085.0 1857.142857142857V1775.142857142857H21280.0V1389.142857142857H21105.0V1307.142857142857H21370.0V1775.142857142857H21555.0V1857.142857142857ZM21315.0 1208.142857142857Q21282.0 1208.142857142857 21263.0 1191.142857142857Q21244.0 1174.142857142857 21244.0 1145.142857142857Q21244.0 1115.142857142857 21263.0 1097.642857142857Q21282.0 1080.142857142857 21315.0 1080.142857142857Q21348.0 1080.142857142857 21367.0 1097.642857142857Q21386.0 1115.142857142857 21386.0 1145.142857142857Q21386.0 1174.142857142857 21367.0 1191.142857142857Q21348.0 1208.142857142857 21315.0 1208.142857142857Z" fill="#ffdf87" transform="translate(16,0) scale(0.014000)"/>
<path d="M21899.0 1867.142857142857Q21804.0 1867.142857142857 21747.0 1810.642857142857Q21690.0 1754.142857142857 21690.0 1657.142857142857V1307.142857142857H21780.0V1657.142857142857Q21780.0 1717.142857142857 21812.0 1752.642857142857Q21844.0 1788.142857142857 21899.0 1788.142857142857Q21955.0 1788.142857142857 21987.5 1752.642857142857Q22020.0 1717.142857142857 22020.0 1657.142857142857V1307.142857142857H22110.0V1657.142857142857Q22110.0 1754.142857142857 22052.0 1810.642857142857Q21994.0 1867.142857142857 21899.0 1867.142857142857Z" fill="#ffdf87" transform="translate(16,0) scale(0.014000)"/>
<path d="M22260.0 1857.142857142857V1307.142857142857H22338.0V1380.142857142857H22340.0Q22345.0 1343.142857142857 22369.5 1320.142857142857Q22394.0 1297.142857142857 22432.0 1297.142857142857Q22468.0 1297.142857142857 22493.0 1318.142857142857Q22518.0 1339.142857142857 22529.0 1375.142857142857H22530.0Q22537.0 1339.142857142857 22561.5 1318.142857142857Q22586.0 1297.142857142857 22624.0 1297.142857142857Q22677.0 1297.142857142857 22708.5 1336.642857142857Q22740.0 1376.142857142857 22740.0 1439.142857142857V1857.142857142857H22656.0V1438.142857142857Q22656.0 1405.142857142857 22640.0 1385.642857142857Q22624.0 1366.142857142857 22596.0 1366.142857142857Q22569.0 1366.142857142857 22553.0 1385.142857142857Q22537.0 1404.142857142857 22537.0 1437.142857142857V1857.142857142857H22463.0V1438.142857142857Q22463.0 1405.142857142857 22447.0 1385.642857142857Q22431.0 1366.142857142857 22404.0 1366.142857142857Q22376.0 1366.142857142857 22360.0 1385.142857142857Q22344.0 1404.142857142857 22344.0 1437.142857142857V1857.142857142857Z" fill="#ffdf87" transform="translate(16,0) scale(0.014000)"/>
<path d="M23650.0 2257.142857142857V737.1428571428571H23750.0V2257.142857142857Z" fill="#bcbcbc" transform="translate(16,0) scale(0.014000)"/>
<path d="M363.73641078838176 14.217842323651453Q364.15653526970954 14.000000000000002 364.59221991701247 14.000000000000002Q365.02790456431535 14.000000000000002 365.4480290456432 14.217842323651453L370.31836099585064 17.04979253112033Q370.92520746887965 17.392116182572614 370.92520746887965 18.092323651452283Q370.92520746887965 18.79253112033195 370.31836099585064 19.134854771784234L365.4480290456432 21.966804979253112Q365.05902489626556 22.184647302904565 364.59221991701247 22.184647302904565Q364.12541493775933 22.184647302904565 363.73641078838176 21.966804979253112L358.8660788381743 19.134854771784234Q358.27479253112034 18.79253112033195 358.27479253112034 18.107883817427386Q358.27479253112034 17.392116182572614 358.8660788381743 17.04979253112033ZM364.7167012448133 15.49377593360996Q364.6544605809129 15.462655601659753 364.59221991701247 15.462655601659753Q364.52997925311206 15.462655601659753 364.46773858921165 15.49377593360996L359.97085062240666 18.107883817427386L364.46773858921165 20.690871369294605Q364.56109958506227 20.753112033195023 364.59221991701247 20.753112033195023Q364.6233402489627 20.753112033195023 364.7167012448133 20.690871369294605L369.2135892116183 18.107883817427386ZM358.36815352697096 21.40663900414938Q358.5704356846473 21.064315352697097 359.0061203319502 21.064315352697097Q359.20840248962656 21.064315352697097 359.3640041493776 21.157676348547717L364.46773858921165 24.11410788381743Q364.52997925311206 24.145228215767638 364.59221991701247 24.145228215767638Q364.6544605809129 24.145228215767638 364.7167012448133 24.11410788381743L369.8204356846473 21.157676348547717Q369.9760373443984 21.064315352697097 370.1783195020747 21.064315352697097Q370.47396265560167 21.064315352697097 370.6918049792531 21.282157676348547Q370.90964730290455 21.5 370.90964730290455 21.780082987551868Q370.90964730290455 22.21576763485477 370.5517634854772 22.40248962655602L365.4480290456432 25.358921161825727Q365.02790456431535 25.607883817427386 364.59221991701247 25.607883817427386Q364.15653526970954 25.607883817427386 363.73641078838176 25.358921161825727L358.6326763485477 22.40248962655602Q358.27479253112034 22.21576763485477 358.27479253112034 21.780082987551868Q358.27479253112034 21.593360995850624 358.36815352697096 21.40663900414938ZM358.36815352697096 24.8298755186722Q358.5859958506224 24.45643153526971 359.0061203319502 24.45643153526971Q359.17728215767636 24.45643153526971 359.3640041493776 24.54979253112033L364.46773858921165 27.506224066390043Q364.52997925311206 27.53734439834025 364.59221991701247 27.53734439834025Q364.6544605809129 27.53734439834025 364.7167012448133 27.506224066390043L369.8204356846473 24.54979253112033Q370.0071576763486 24.45643153526971 370.1783195020747 24.45643153526971Q370.47396265560167 24.45643153526971 370.6918049792531 24.67427385892116Q370.90964730290455 24.892116182572614 370.90964730290455 25.172199170124482Q370.90964730290455 25.607883817427386 370.5517634854772 25.82572614107884L365.4480290456432 28.78215767634855Q365.02790456431535 29.0 364.59221991701247 29.0Q364.15653526970954 29.0 363.73641078838176 28.78215767634855L358.6326763485477 25.82572614107884Q358.27479253112034 25.607883817427386 358.27479253112034 25.172199170124482Q358.27479253112034 24.98547717842324 358.36815352697096 24.8298755186722Z" fill="#5fd7d7"/>
<path d="M25912.0 1857.142857142857V1307.142857142857H26002.0V1412.142857142857H26004.0Q26011.0 1359.142857142857 26049.0 1328.142857142857Q26087.0 1297.142857142857 26151.0 1297.142857142857Q26237.0 1297.142857142857 26283.5 1348.642857142857Q26330.0 1400.142857142857 26330.0 1495.142857142857V1542.142857142857H26240.0V1495.142857142857Q26240.0 1375.142857142857 26123.0 1375.142857142857Q26064.0 1375.142857142857 26033.0 1409.142857142857Q26002.0 1443.142857142857 26002.0 1507.142857142857V1857.142857142857Z" fill="#bcbcbc" transform="translate(16,0) scale(0.014000)"/>
<path d="M26700.0 1867.142857142857Q26603.0 1867.142857142857 26543.5 1808.642857142857Q26484.0 1750.142857142857 26484.0 1647.142857142857V1517.142857142857Q26484.0 1414.142857142857 26543.5 1355.642857142857Q26603.0 1297.142857142857 26700.0 1297.142857142857Q26765.0 1297.142857142857 26813.5 1323.142857142857Q26862.0 1349.142857142857 26889.0 1396.142857142857Q26916.0 1443.142857142857 26916.0 1507.142857142857V1605.142857142857H26572.0V1657.142857142857Q26572.0 1718.142857142857 26607.0 1753.642857142857Q26642.0 1789.142857142857 26700.0 1789.142857142857Q26750.0 1789.142857142857 26782.5 1769.642857142857Q26815.0 1750.142857142857 26822.0 1717.142857142857H26912.0Q26903.0 1786.142857142857 26845.0 1826.642857142857Q26787.0 1867.142857142857 26700.0 1867.142857142857ZM26572.0 1535.142857142857H26828.0V1507.142857142857Q26828.0 1442.142857142857 26794.5 1406.642857142857Q26761.0 1371.142857142857 26700.0 1371.142857142857Q26639.0 1371.142857142857 26605.5 1406.642857142857Q26572.0 1442.142857142857 26572.0 1507.142857142857Z" fill="#bcbcbc" transform="translate(16,0) scale(0.014000)"/>
<path d="M27060.0 1857.142857142857V1307.142857142857H27138.0V1380.142857142857H27140.0Q27145.0 1343.142857142857 27169.5 1320.142857142857Q27194.0 1297.142857142857 27232.0 1297.142857142857Q27268.0 1297.142857142857 27293.0 1318.142857142857Q27318.0 1339.142857142857 27329.0 1375.142857142857H27330.0Q27337.0 1339.142857142857 27361.5 1318.142857142857Q27386.0 1297.142857142857 27424.0 1297.142857142857Q27477.0 1297.142857142857 27508.5 1336.642857142857Q27540.0 1376.142857142857 27540.0 1439.142857142857V1857.142857142857H27456.0V1438.142857142857Q27456.0 1405.142857142857 27440.0 1385.642857142857Q27424.0 1366.142857142857 27396.0 1366.142857142857Q27369.0 1366.142857142857 27353.0 1385.142857142857Q27337.0 1404.142857142857 27337.0 1437.142857142857V1857.142857142857H27263.0V1438.142857142857Q27263.0 1405.142857142857 27247.0 1385.642857142857Q27231.0 1366.142857142857 27204.0 1366.142857142857Q27176.0 1366.142857142857 27160.0 1385.142857142857Q27144.0 1404.142857142857 27144.0 1437.142857142857V1857.142857142857Z" fill="#bcbcbc" transform="translate(16,0) scale(0.014000)"/>
<path d="M28290.0 1857.142857142857V1775.142857142857H28488.0V1205.142857142857L28290.0 1353.142857142857V1250.142857142857L28455.0 1127.142857142857H28578.0V1775.142857142857H28740.0V1857.142857142857Z" fill="#dadada" transform="translate(16,0) scale(0.014000)"/>
<path d="M28995.0 1857.142857142857 29175.0 1544.142857142857 29172.0 1542.142857142857Q29162.0 1558.142857142857 29135.0 1567.642857142857Q29108.0 1577.142857142857 29076.0 1577.142857142857Q29013.0 1577.142857142857 28965.5 1548.642857142857Q28918.0 1520.142857142857 28891.0 1470.142857142857Q28864.0 1420.142857142857 28864.0 1354.142857142857Q28864.0 1283.142857142857 28894.0 1230.142857142857Q28924.0 1177.142857142857 28977.0 1147.142857142857Q29030.0 1117.142857142857 29099.0 1117.142857142857Q29170.0 1117.142857142857 29223.0 1146.642857142857Q29276.0 1176.142857142857 29306.0 1228.642857142857Q29336.0 1281.142857142857 29336.0 1350.142857142857Q29336.0 1398.142857142857 29318.0 1448.642857142857Q29300.0 1499.142857142857 29269.0 1554.142857142857L29100.0 1857.142857142857ZM29100.0 1507.142857142857Q29165.0 1507.142857142857 29205.5 1464.142857142857Q29246.0 1421.142857142857 29246.0 1352.142857142857Q29246.0 1283.142857142857 29205.5 1240.142857142857Q29165.0 1197.142857142857 29100.0 1197.142857142857Q29035.0 1197.142857142857 28994.5 1240.142857142857Q28954.0 1283.142857142857 28954.0 1352.142857142857Q28954.0 1421.142857142857 28994.5 1464.142857142857Q29035.0 1507.142857142857 29100.0 1507.142857142857Z" fill="#dadada" transform="translate(16,0) scale(0.014000)"/>
<path d="M29700.0 1867.142857142857Q29599.0 1867.142857142857 29539.5 1808.642857142857Q29480.0 1750.142857142857 29480.0 1652.142857142857V1332.142857142857Q29480.0 1234.142857142857 29539.5 1175.642857142857Q29599.0 1117.142857142857 29700.0 1117.142857142857Q29801.0 1117.142857142857 29860.5 1175.642857142857Q29920.0 1234.142857142857 29920.0 1332.142857142857V1652.142857142857Q29920.0 1717.142857142857 29893.0 1765.642857142857Q29866.0 1814.142857142857 29816.5 1840.642857142857Q29767.0 1867.142857142857 29700.0 1867.142857142857ZM29700.0 1790.142857142857Q29760.0 1790.142857142857 29796.5 1751.642857142857Q29833.0 1713.142857142857 29833.0 1652.142857142857V1332.142857142857Q29833.0 1271.142857142857 29796.5 1232.642857142857Q29760.0 1194.142857142857 29700.0 1194.142857142857Q29640.0 1194.142857142857 29603.5 1232.642857142857Q29567.0 1271.142857142857 29567.0 1332.142857142857V1652.142857142857Q29567.0 1713.142857142857 29603.5 1751.642857142857Q29640.0 1790.142857142857 29700.0 1790.142857142857ZM29700.0 1547.142857142857Q29673.0 1547.142857142857 29656.5 1532.142857142857Q29640.0 1517.142857142857 29640.0 1489.142857142857Q29640.0 1462.142857142857 29656.5 1447.642857142857Q29673.0 1433.142857142857 29700.0 1433.142857142857Q29727.0 1433.142857142857 29743.5 1447.642857142857Q29760.0 1462.142857142857 29760.0 1489.142857142857Q29760.0 1517.142857142857 29743.5 1532.142857142857Q29727.0 1547.142857142857 29700.0 1547.142857142857Z" fill="#dadada" transform="translate(16,0) scale(0.014000)"/>
<path d="M30300.0 1867.142857142857Q30231.0 1867.142857142857 30178.0 1840.142857142857Q30125.0 1813.142857142857 30095.5 1764.642857142857Q30066.0 1716.142857142857 30066.0 1653.142857142857Q30066.0 1584.142857142857 30105.5 1534.142857142857Q30145.0 1484.142857142857 30211.0 1473.142857142857V1470.142857142857Q30154.0 1457.142857142857 30120.0 1412.642857142857Q30086.0 1368.142857142857 30086.0 1310.142857142857Q30086.0 1253.142857142857 30113.0 1209.642857142857Q30140.0 1166.142857142857 30188.5 1141.642857142857Q30237.0 1117.142857142857 30300.0 1117.142857142857Q30364.0 1117.142857142857 30412.0 1141.642857142857Q30460.0 1166.142857142857 30487.0 1209.642857142857Q30514.0 1253.142857142857 30514.0 1310.142857142857Q30514.0 1368.142857142857 30480.0 1412.642857142857Q30446.0 1457.142857142857 30389.0 1470.142857142857V1473.142857142857Q30455.0 1484.142857142857 30494.5 1534.142857142857Q30534.0 1584.142857142857 30534.0 1653.142857142857Q30534.0 1716.142857142857 30504.5 1764.642857142857Q30475.0 1813.142857142857 30422.5 1840.142857142857Q30370.0 1867.142857142857 30300.0 1867.142857142857ZM30300.0 1435.142857142857Q30356.0 1435.142857142857 30390.0 1402.142857142857Q30424.0 1369.142857142857 30424.0 1316.142857142857Q30424.0 1263.142857142857 30390.0 1230.142857142857Q30356.0 1197.142857142857 30300.0 1197.142857142857Q30245.0 1197.142857142857 30210.5 1230.142857142857Q30176.0 1263.142857142857 30176.0 1316.142857142857Q30176.0 1369.142857142857 30210.5 1402.142857142857Q30245.0 1435.142857142857 30300.0 1435.142857142857ZM30300.0 1786.142857142857Q30364.0 1786.142857142857 30404.0 1748.642857142857Q30444.0 1711.142857142857 30444.0 1651.142857142857Q30444.0 1590.142857142857 30404.0 1552.642857142857Q30364.0 1515.142857142857 30300.0 1515.142857142857Q30236.0 1515.142857142857 30196.0 1552.642857142857Q30156.0 1590.142857142857 30156.0 1651.142857142857Q30156.0 1711.142857142857 30196.0 1748.642857142857Q30236.0 1786.142857142857 30300.0 1786.142857142857Z" fill="#dadada" transform="translate(16,0) scale(0.014000)"/>
<path d="M30900.0 1867.142857142857Q30799.0 1867.142857142857 30739.5 1808.642857142857Q30680.0 1750.142857142857 30680.0 1652.142857142857V1332.142857142857Q30680.0 1234.142857142857 30739.5 1175.642857142857Q30799.0 1117.142857142857 30900.0 1117.142857142857Q31001.0 1117.142857142857 31060.5 1175.642857142857Q31120.0 1234.142857142857 31120.0 1332.142857142857V1652.142857142857Q31120.0 1717.142857142857 31093.0 1765.642857142857Q31066.0 1814.142857142857 31016.5 1840.642857142857Q30967.0 1867.142857142857 30900.0 1867.142857142857ZM30900.0 1790.142857142857Q30960.0 1790.142857142857 30996.5 1751.642857142857Q31033.0 1713.142857142857 31033.0 1652.142857142857V1332.142857142857Q31033.0 1271.142857142857 30996.5 1232.642857142857Q30960.0 1194.142857142857 30900.0 1194.142857142857Q30840.0 1194.142857142857 30803.5 1232.642857142857Q30767.0 1271.142857142857 30767.0 1332.142857142857V1652.142857142857Q30767.0 1713.142857142857 30803.5 1751.642857142857Q30840.0 1790.142857142857 30900.0 1790.142857142857ZM30900.0 1547.142857142857Q30873.0 1547.142857142857 30856.5 1532.142857142857Q30840.0 1517.142857142857 30840.0 1489.142857142857Q30840.0 1462.142857142857 30856.5 1447.642857142857Q30873.0 1433.142857142857 30900.0 1433.142857142857Q30927.0 1433.142857142857 30943.5 1447.642857142857Q30960.0 1462.142857142857 30960.0 1489.142857142857Q30960.0 1517.142857142857 30943.5 1532.142857142857Q30927.0 1547.142857142857 30900.0 1547.142857142857Z" fill="#dadada" transform="translate(16,0) scale(0.014000)"/>
<path d="M31275.0 1967.142857142857 31630.0 1027.142857142857H31725.0L31370.0 1967.142857142857Z" fill="#dadada" transform="translate(16,0) scale(0.014000)"/>
<path d="M32089.0 1867.142857142857Q31988.0 1867.142857142857 31929.0 1810.642857142857Q31870.0 1754.142857142857 31870.0 1657.142857142857H31960.0Q31960.0 1717.142857142857 31995.0 1752.142857142857Q32030.0 1787.142857142857 32090.0 1787.142857142857Q32150.0 1787.142857142857 32185.0 1752.142857142857Q32220.0 1717.142857142857 32220.0 1657.142857142857V1607.142857142857Q32220.0 1547.142857142857 32185.0 1512.142857142857Q32150.0 1477.142857142857 32090.0 1477.142857142857H32011.0V1399.142857142857L32190.0 1209.142857142857H31890.0V1127.142857142857H32292.0V1211.142857142857L32116.0 1398.142857142857Q32206.0 1405.142857142857 32258.0 1460.642857142857Q32310.0 1516.142857142857 32310.0 1607.142857142857V1657.142857142857Q32310.0 1754.142857142857 32250.5 1810.642857142857Q32191.0 1867.142857142857 32089.0 1867.142857142857Z" fill="#dadada" transform="translate(16,0) scale(0.014000)"/>
<path d="M32700.0 1867.142857142857Q32599.0 1867.142857142857 32539.5 1808.642857142857Q32480.0 1750.142857142857 32480.0 1652.142857142857V1332.142857142857Q32480.0 1234.142857142857 32539.5 1175.642857142857Q32599.0 1117.142857142857 32700.0 1117.142857142857Q32801.0 1117.142857142857 32860.5 1175.642857142857Q32920.0 1234.142857142857 32920.0 1332.142857142857V1652.142857142857Q32920.0 1717.142857142857 32893.0 1765.642857142857Q32866.0 1814.142857142857 32816.5 1840.642857142857Q32767.0 1867.142857142857 32700.0 1867.142857142857ZM32700.0 1790.142857142857Q32760.0 1790.142857142857 32796.5 1751.642857142857Q32833.0 1713.142857142857 32833.0 1652.142857142857V1332.142857142857Q32833.0 1271.142857142857 32796.5 1232.642857142857Q32760.0 1194.142857142857 32700.0 1194.142857142857Q32640.0 1194.142857142857 32603.5 1232.642857142857Q32567.0 1271.142857142857 32567.0 1332.142857142857V1652.142857142857Q32567.0 1713.142857142857 32603.5 1751.642857142857Q32640.0 1790.142857142857 32700.0 1790.142857142857ZM32700.0 1547.142857142857Q32673.0 1547.142857142857 32656.5 1532.142857142857Q32640.0 1517.142857142857 32640.0 1489.142857142857Q32640.0 1462.142857142857 32656.5 1447.642857142857Q32673.0 1433.142857142857 32700.0 1433.142857142857Q32727.0 1433.142857142857 32743.5 1447.642857142857Q32760.0 1462.142857142857 32760.0 1489.142857142857Q32760.0 1517.142857142857 32743.5 1532.142857142857Q32727.0 1547.142857142857 32700.0 1547.142857142857Z" fill="#dadada" transform="translate(16,0) scale(0.014000)"/>
<path d="M33300.0 1867.142857142857Q33199.0 1867.142857142857 33139.5 1808.642857142857Q33080.0 1750.142857142857 33080.0 1652.142857142857V1332.142857142857Q33080.0 1234.142857142857 33139.5 1175.642857142857Q33199.0 1117.142857142857 33300.0 1117.142857142857Q33401.0 1117.142857142857 33460.5 1175.642857142857Q33520.0 1234.142857142857 33520.0 1332.142857142857V1652.142857142857Q33520.0 1717.142857142857 33493.0 1765.642857142857Q33466.0 1814.142857142857 33416.5 1840.642857142857Q33367.0 1867.142857142857 33300.0 1867.142857142857ZM33300.0 1790.142857142857Q33360.0 1790.142857142857 33396.5 1751.642857142857Q33433.0 1713.142857142857 33433.0 1652.142857142857V1332.142857142857Q33433.0 1271.142857142857 33396.5 1232.642857142857Q33360.0 1194.142857142857 33300.0 1194.142857142857Q33240.0 1194.142857142857 33203.5 1232.642857142857Q33167.0 1271.142857142857 33167.0 1332.142857142857V1652.142857142857Q33167.0 1713.142857142857 33203.5 1751.642857142857Q33240.0 1790.142857142857 33300.0 1790.142857142857ZM33300.0 1547.142857142857Q33273.0 1547.142857142857 33256.5 1532.142857142857Q33240.0 1517.142857142857 33240.0 1489.142857142857Q33240.0 1462.142857142857 33256.5 1447.642857142857Q33273.0 1433.142857142857 33300.0 1433.142857142857Q33327.0 1433.142857142857 33343.5 1447.642857142857Q33360.0 1462.142857142857 33360.0 1489.142857142857Q33360.0 1517.142857142857 33343.5 1532.142857142857Q33327.0 1547.142857142857 33300.0 1547.142857142857Z" fill="#dadada" transform="translate(16,0) scale(0.014000)"/>
<path d="M33900.0 1867.142857142857Q33799.0 1867.142857142857 33739.5 1808.642857142857Q33680.0 1750.142857142857 33680.0 1652.142857142857V1332.142857142857Q33680.0 1234.142857142857 33739.5 1175.642857142857Q33799.0 1117.142857142857 33900.0 1117.142857142857Q34001.0 1117.142857142857 34060.5 1175.642857142857Q34120.0 1234.142857142857 34120.0 1332.142857142857V1652.142857142857Q34120.0 1717.142857142857 34093.0 1765.642857142857Q34066.0 1814.142857142857 34016.5 1840.642857142857Q33967.0 1867.142857142857 33900.0 1867.142857142857ZM33900.0 1790.142857142857Q33960.0 1790.142857142857 33996.5 1751.642857142857Q34033.0 1713.142857142857 34033.0 1652.142857142857V1332.142857142857Q34033.0 1271.142857142857 33996.5 1232.642857142857Q33960.0 1194.142857142857 33900.0 1194.142857142857Q33840.0 1194.142857142857 33803.5 1232.642857142857Q33767.0 1271.142857142857 33767.0 1332.142857142857V1652.142857142857Q33767.0 1713.142857142857 33803.5 1751.642857142857Q33840.0 1790.142857142857 33900.0 1790.142857142857ZM33900.0 1547.142857142857Q33873.0 1547.142857142857 33856.5 1532.142857142857Q33840.0 1517.142857142857 33840.0 1489.142857142857Q33840.0 1462.142857142857 33856.5 1447.642857142857Q33873.0 1433.142857142857 33900.0 1433.142857142857Q33927.0 1433.142857142857 33943.5 1447.642857142857Q33960.0 1462.142857142857 33960.0 1489.142857142857Q33960.0 1517.142857142857 33943.5 1532.142857142857Q33927.0 1547.142857142857 33900.0 1547.142857142857Z" fill="#dadada" transform="translate(16,0) scale(0.014000)"/>
<path d="M34500.0 1867.142857142857Q34399.0 1867.142857142857 34339.5 1808.642857142857Q34280.0 1750.142857142857 34280.0 1652.142857142857V1332.142857142857Q34280.0 1234.142857142857 34339.5 1175.642857142857Q34399.0 1117.142857142857 34500.0 1117.142857142857Q34601.0 1117.142857142857 34660.5 1175.642857142857Q34720.0 1234.142857142857 34720.0 1332.142857142857V1652.142857142857Q34720.0 1717.142857142857 34693.0 1765.642857142857Q34666.0 1814.142857142857 34616.5 1840.642857142857Q34567.0 1867.142857142857 34500.0 1867.142857142857ZM34500.0 1790.142857142857Q34560.0 1790.142857142857 34596.5 1751.642857142857Q34633.0 1713.142857142857 34633.0 1652.142857142857V1332.142857142857Q34633.0 1271.142857142857 34596.5 1232.642857142857Q34560.0 1194.142857142857 34500.0 1194.142857142857Q34440.0 1194.142857142857 34403.5 1232.642857142857Q34367.0 1271.142857142857 34367.0 1332.142857142857V1652.142857142857Q34367.0 1713.142857142857 34403.5 1751.642857142857Q34440.0 1790.142857142857 34500.0 1790.142857142857ZM34500.0 1547.142857142857Q34473.0 1547.142857142857 34456.5 1532.142857142857Q34440.0 1517.142857142857 34440.0 1489.142857142857Q34440.0 1462.142857142857 34456.5 1447.642857142857Q34473.0 1433.142857142857 34500.0 1433.142857142857Q34527.0 1433.142857142857 34543.5 1447.642857142857Q34560.0 1462.142857142857 34560.0 1489.142857142857Q34560.0 1517.142857142857 34543.5 1532.142857142857Q34527.0 1547.142857142857 34500.0 1547.142857142857Z" fill="#dadada" transform="translate(16,0) scale(0.014000)"/>
<path d="M26.758441558441557 44.33766233766234V45.76623376623377Q26.758441558441557 46.74025974025974 24.84285714285714 47.42207792207792Q22.927272727272726 48.103896103896105 20.2 48.103896103896105Q17.472727272727273 48.103896103896105 15.557142857142857 47.42207792207792Q13.641558441558441 46.74025974025974 13.641558441558441 45.76623376623377V44.33766233766234Q13.641558441558441 43.36363636363636 15.557142857142857 42.68181818181818Q17.472727272727273 42.0 20.2 42.0Q22.927272727272726 42.0 24.84285714285714 42.68181818181818Q26.758441558441557 43.36363636363636 26.758441558441557 44.33766233766234ZM25.1512987012987 48.298701298701296Q26.076623376623374 47.97402597402597 26.758441558441557 47.45454545454545V50.44155844155844Q26.758441558441557 51.41558441558441 24.84285714285714 52.09740259740259Q22.927272727272726 52.77922077922078 20.2 52.77922077922078Q17.472727272727273 52.77922077922078 15.557142857142857 52.09740259740259Q13.641558441558441 51.41558441558441 13.641558441558441 50.44155844155844V47.45454545454545Q14.323376623376623 47.97402597402597 15.248701298701299 48.298701298701296Q17.294155844155842 49.01298701298701 20.199999999999996 49.01298701298701Q23.105844155844153 49.01298701298701 25.1512987012987 48.298701298701296ZM13.641558441558441 52.12987012987013Q14.274675324675325 52.64935064935065 15.248701298701299 52.97402597402597Q17.326623376623377 53.72077922077922 20.200000000000003 53.72077922077922Q23.073376623376625 53.72077922077922 25.1512987012987 52.97402597402597Q26.125324675324674 52.64935064935065 26.758441558441557 52.12987012987013V54.66233766233766Q26.758441558441557 55.63636363636363 24.84285714285714 56.31818181818181Q22.927272727272726 57.0 20.2 57.0Q17.472727272727273 57.0 15.557142857142857 56.31818181818181Q13.641558441558441 55.63636363636363 13.641558441558441 54.66233766233766Z" fill="#5fd7d7"/>
<path d="M1290.0 3857.142857142857V3775.142857142857H1488.0V3205.142857142857L1290.0 3353.142857142857V3250.142857142857L1455.0 3127.142857142857H1578.0V3775.142857142857H1740.0V3857.142857142857Z" fill="#dadada" transform="translate(16,0) scale(0.014000)"/>
<path d="M1890.0 3857.142857142857V3775.142857142857H2088.0V3205.142857142857L1890.0 3353.142857142857V3250.142857142857L2055.0 3127.142857142857H2178.0V3775.142857142857H2340.0V3857.142857142857Z" fill="#dadada" transform="translate(16,0) scale(0.014000)"/>
<path d="M2701.0 3867.142857142857Q2631.0 3867.142857142857 2577.5 3837.642857142857Q2524.0 3808.142857142857 2494.0 3755.642857142857Q2464.0 3703.142857142857 2464.0 3634.142857142857Q2464.0 3586.142857142857 2482.0 3535.642857142857Q2500.0 3485.142857142857 2531.0 3430.142857142857L2700.0 3127.142857142857H2800.0L2620.0 3440.142857142857L2623.0 3442.142857142857Q2636.0 3425.142857142857 2662.0 3416.142857142857Q2688.0 3407.142857142857 2719.0 3407.142857142857Q2784.0 3407.142857142857 2832.5 3435.642857142857Q2881.0 3464.142857142857 2908.5 3514.142857142857Q2936.0 3564.142857142857 2936.0 3630.142857142857Q2936.0 3700.142857142857 2906.0 3753.642857142857Q2876.0 3807.142857142857 2823.5 3837.142857142857Q2771.0 3867.142857142857 2701.0 3867.142857142857ZM2700.0 3787.142857142857Q2765.0 3787.142857142857 2805.5 3744.142857142857Q2846.0 3701.142857142857 2846.0 3632.142857142857Q2846.0 3563.142857142857 2805.5 3520.142857142857Q2765.0 3477.142857142857 2700.0 3477.142857142857Q2635.0 3477.142857142857 2594.5 3520.142857142857Q2554.0 3563.142857142857 2554.0 3632.142857142857Q2554.0 3701.142857142857 2594.5 3744.142857142857Q2635.0 3787.142857142857 2700.0 3787.142857142857Z" fill="#dadada" transform="translate(16,0) scale(0.014000)"/>
<path d="M3097.0 3857.142857142857V3127.142857142857H3187.0V3534.142857142857H3292.0L3446.0 3307.142857142857H3549.0L3372.0 3569.142857142857L3559.0 3857.142857142857H3454.0L3294.0 3612.142857142857H3187.0V3857.142857142857Z" fill="#dadada" transform="translate(16,0) scale(0.014000)"/>
<path d="M3675.0 3967.142857142857 4030.0 3027.142857142857H4125.0L3770.0 3967.142857142857Z" fill="#dadada" transform="translate(16,0) scale(0.014000)"/>
<path d="M4290.0 3857.142857142857V3775.142857142857H4488.0V3205.142857142857L4290.0 3353.142857142857V3250.142857142857L4455.0 3127.142857142857H4578.0V3775.142857142857H4740.0V3857.142857142857Z" fill="#dadada" transform="translate(16,0) scale(0.014000)"/>
<path d="M5100.0 3867.142857142857Q5063.0 3867.142857142857 5040.5 3845.142857142857Q5018.0 3823.142857142857 5018.0 3788.142857142857Q5018.0 3751.142857142857 5040.5 3728.142857142857Q5063.0 3705.142857142857 5100.0 3705.142857142857Q5137.0 3705.142857142857 5159.5 3728.142857142857Q5182.0 3751.142857142857 5182.0 3788.142857142857Q5182.0 3823.142857142857 5159.5 3845.142857142857Q5137.0 3867.142857142857 5100.0 3867.142857142857Z" fill="#dadada" transform="translate(16,0) scale(0.014000)"/>
<path d="M5490.0 3857.142857142857V3775.142857142857H5688.0V3205.142857142857L5490.0 3353.142857142857V3250.142857142857L5655.0 3127.142857142857H5778.0V3775.142857142857H5940.0V3857.142857142857Z" fill="#dadada" transform="translate(16,0) scale(0.014000)"/>
<path d="M6072.0 3857.142857142857V3127.142857142857H6205.0L6298.0 3443.142857142857L6395.0 3127.142857142857H6528.0V3857.142857142857H6441.0V3512.142857142857Q6441.0 3463.142857142857 6442.5 3399.642857142857Q6444.0 3336.142857142857 6447.0 3271.142857142857Q6450.0 3206.142857142857 6454.0 3154.142857142857L6336.0 3531.142857142857H6258.0L6145.0 3163.142857142857Q6153.0 3237.142857142857 6156.0 3325.142857142857Q6159.0 3413.142857142857 6159.0 3512.142857142857V3857.142857142857Z" fill="#dadada" transform="translate(16,0) scale(0.014000)"/>
<path d="M7450.0 4257.142857142857V2737.142857142857H7550.0V4257.142857142857Z" fill="#bcbcbc" transform="translate(16,0) scale(0.014000)"/>
<path d="M135.60823401950162 43.15980498374865V44.25189599133262H137.14019501625137V43.15980498374865Q137.14019501625137 42.886782231852656 137.33737811484292 42.70476706392199Q137.53456121343447 42.522751895991334 137.80758396533045 42.49241603466956Q138.08060671722646 42.522751895991334 138.2626218851571 42.70476706392199Q138.44463705308777 42.886782231852656 138.45980498374865 43.15980498374865V44.25189599133262H139.9917659804984V43.15980498374865Q139.9917659804984 42.886782231852656 140.17378114842904 42.70476706392199Q140.35579631635972 42.522751895991334 140.6439869989166 42.49241603466956Q140.93217768147346 42.522751895991334 141.1141928494041 42.70476706392199Q141.29620801733478 42.886782231852656 141.29620801733478 43.15980498374865V44.25189599133262Q142.02426868905744 44.25189599133262 142.53997833152764 44.767605633802816Q143.05568797399783 45.28331527627302 143.05568797399783 46.01137594799567H144.1477789815818Q144.4208017334778 46.01137594799567 144.60281690140846 46.19339111592633Q144.78483206933913 46.37540628385699 144.8 46.64842903575298Q144.78483206933913 46.95178764897075 144.60281690140846 47.13380281690141Q144.4208017334778 47.31581798483207 144.1477789815818 47.31581798483207H143.05568797399783V48.83261105092091H144.1477789815818Q144.4208017334778 48.86294691224269 144.60281690140846 49.04496208017335Q144.78483206933913 49.22697724810401 144.8 49.5Q144.78483206933913 49.773022751895994 144.60281690140846 49.970205850487545Q144.4208017334778 50.16738894907909 144.1477789815818 50.16738894907909H143.05568797399783V51.684182015167934H144.1477789815818Q144.4208017334778 51.71451787648971 144.60281690140846 51.896533044420366Q144.78483206933913 52.07854821235103 144.8 52.351570964247024Q144.78483206933913 52.62459371614301 144.60281690140846 52.80660888407367Q144.4208017334778 52.98862405200433 144.1477789815818 52.98862405200433H143.05568797399783Q143.05568797399783 53.71668472372698 142.53997833152764 54.232394366197184Q142.02426868905744 54.74810400866739 141.29620801733478 54.74810400866739V55.84019501625136Q141.29620801733478 56.143553629469125 141.1141928494041 56.32556879739978Q140.93217768147346 56.50758396533045 140.6439869989166 56.50758396533045Q140.35579631635972 56.50758396533045 140.17378114842904 56.32556879739978Q139.9917659804984 56.143553629469125 139.9917659804984 55.84019501625136V54.74810400866739H138.45980498374865V55.84019501625136Q138.44463705308777 56.143553629469125 138.2626218851571 56.32556879739978Q138.08060671722646 56.50758396533045 137.80758396533048 56.50758396533045Q137.53456121343447 56.50758396533045 137.33737811484292 56.32556879739978Q137.14019501625137 56.143553629469125 137.14019501625137 55.84019501625136V54.74810400866739H135.60823401950162V55.84019501625136Q135.59306608884074 56.143553629469125 135.4110509209101 56.32556879739978Q135.22903575297943 56.50758396533045 134.95601300108342 56.50758396533045Q134.68299024918744 56.50758396533045 134.5009750812568 56.32556879739978Q134.31895991332613 56.143553629469125 134.30379198266525 55.84019501625136V54.74810400866739Q133.5757313109426 54.74810400866739 133.0600216684724 54.232394366197184Q132.5443120260022 53.71668472372698 132.5443120260022 52.98862405200433H131.45222101841821Q131.16403033586133 52.98862405200433 130.98201516793068 52.80660888407367Q130.8 52.62459371614301 130.8 52.35157096424702Q130.8 52.07854821235103 130.98201516793068 51.896533044420366Q131.16403033586133 51.71451787648971 131.45222101841821 51.684182015167934H132.5443120260022V50.16738894907909H131.45222101841821Q131.16403033586133 50.16738894907909 130.98201516793068 49.970205850487545Q130.8 49.773022751895994 130.8 49.5Q130.8 49.22697724810401 130.98201516793068 49.04496208017335Q131.16403033586133 48.86294691224269 131.45222101841821 48.83261105092091H132.5443120260022V47.31581798483207H131.45222101841821Q131.16403033586133 47.31581798483207 130.98201516793068 47.13380281690141Q130.8 46.95178764897075 130.8 46.66359696641387Q130.8 46.37540628385699 130.98201516793068 46.19339111592633Q131.16403033586133 46.01137594799567 131.45222101841821 46.01137594799567H132.5443120260022Q132.5443120260022 45.28331527627302 133.0600216684724 44.767605633802816Q133.5757313109426 44.25189599133262 134.30379198266525 44.25189599133262V43.15980498374865Q134.31895991332613 42.886782231852656 134.5009750812568 42.70476706392199Q134.68299024918744 42.522751895991334 134.95601300108345 42.49241603466956Q135.22903575297943 42.522751895991334 135.4110509209101 42.70476706392199Q135.59306608884074 42.886782231852656 135.60823401950162 43.15980498374865ZM135.16836403033588 46.01137594799567Q134.80433369447456 46.01137594799567 134.56164680390035 46.25406283856988Q134.31895991332613 46.4967497291441 134.30379198266525 46.860780065005414V52.10888407367281Q134.31895991332613 52.47291440953413 134.56164680390035 52.730769230769226Q134.80433369447456 52.98862405200433 135.16836403033588 52.98862405200433H140.43163596966414Q140.81083423618637 52.98862405200433 141.0535211267606 52.730769230769226Q141.29620801733478 52.47291440953413 141.29620801733478 52.10888407367281V46.860780065005414Q141.29620801733478 46.4967497291441 141.0535211267606 46.25406283856988Q140.81083423618637 46.01137594799567 140.43163596966414 46.01137594799567ZM140.43163596966414 46.860780065005414V52.10888407367281H135.16836403033588V46.860780065005414Z" fill="#5fd7d7"/>
<path d="M9908.0 3867.142857142857Q9808.0 3867.142857142857 9750.0 3811.142857142857Q9692.0 3755.142857142857 9692.0 3657.142857142857V3327.142857142857Q9692.0 3229.142857142857 9750.0 3173.142857142857Q9808.0 3117.142857142857 9908.0 3117.142857142857Q10006.0 3117.142857142857 10064.0 3173.642857142857Q10122.0 3230.142857142857 10122.0 3327.142857142857H10032.0Q10032.0 3265.142857142857 9999.5 3231.642857142857Q9967.0 3198.142857142857 9908.0 3198.142857142857Q9849.0 3198.142857142857 9815.5 3231.642857142857Q9782.0 3265.142857142857 9782.0 3327.142857142857V3657.142857142857Q9782.0 3719.142857142857 9815.5 3752.642857142857Q9849.0 3786.142857142857 9908.0 3786.142857142857Q9967.0 3786.142857142857 9999.5 3752.642857142857Q10032.0 3719.142857142857 10032.0 3657.142857142857H10122.0Q10122.0 3754.142857142857 10064.0 3810.642857142857Q10006.0 3867.142857142857 9908.0 3867.142857142857Z" fill="#bcbcbc" transform="translate(16,0) scale(0.014000)"/>
<path d="M10293.0 3857.142857142857V3127.142857142857H10383.0V3439.142857142857H10617.0V3127.142857142857H10707.0V3857.142857142857H10617.0V3521.142857142857H10383.0V3857.142857142857Z" fill="#bcbcbc" transform="translate(16,0) scale(0.014000)"/>
<path d="M10995.0 3857.142857142857 11175.0 3544.142857142857 11172.0 3542.142857142857Q11162.0 3558.142857142857 11135.0 3567.642857142857Q11108.0 3577.142857142857 11076.0 3577.142857142857Q11013.0 3577.142857142857 10965.5 3548.642857142857Q10918.0 3520.142857142857 10891.0 3470.142857142857Q10864.0 3420.142857142857 10864.0 3354.142857142857Q10864.0 3283.142857142857 10894.0 3230.142857142857Q10924.0 3177.142857142857 10977.0 3147.142857142857Q11030.0 3117.142857142857 11099.0 3117.142857142857Q11170.0 3117.142857142857 11223.0 3146.642857142857Q11276.0 3176.142857142857 11306.0 3228.642857142857Q11336.0 3281.142857142857 11336.0 3350.142857142857Q11336.0 3398.142857142857 11318.0 3448.642857142857Q11300.0 3499.142857142857 11269.0 3554.142857142857L11100.0 3857.142857142857ZM11100.0 3507.142857142857Q11165.0 3507.142857142857 11205.5 3464.142857142857Q11246.0 3421.142857142857 11246.0 3352.142857142857Q11246.0 3283.142857142857 11205.5 3240.142857142857Q11165.0 3197.142857142857 11100.0 3197.142857142857Q11035.0 3197.142857142857 10994.5 3240.142857142857Q10954.0 3283.142857142857 10954.0 3352.142857142857Q10954.0 3421.142857142857 10994.5 3464.142857142857Q11035.0 3507.142857142857 11100.0 3507.142857142857Z" fill="#87d787" transform="translate(16,0) scale(0.014000)"/>
<path d="M11595.0 3857.142857142857 11775.0 3544.142857142857 11772.0 3542.142857142857Q11762.0 3558.142857142857 11735.0 3567.642857142857Q11708.0 3577.142857142857 11676.0 3577.142857142857Q11613.0 3577.142857142857 11565.5 3548.642857142857Q11518.0 3520.142857142857 11491.0 3470.142857142857Q11464.0 3420.142857142857 11464.0 3354.142857142857Q11464.0 3283.142857142857 11494.0 3230.142857142857Q11524.0 3177.142857142857 11577.0 3147.142857142857Q11630.0 3117.142857142857 11699.0 3117.142857142857Q11770.0 3117.142857142857 11823.0 3146.642857142857Q11876.0 3176.142857142857 11906.0 3228.642857142857Q11936.0 3281.142857142857 11936.0 3350.142857142857Q11936.0 3398.142857142857 11918.0 3448.642857142857Q11900.0 3499.142857142857 11869.0 3554.142857142857L11700.0 3857.142857142857ZM11700.0 3507.142857142857Q11765.0 3507.142857142857 11805.5 3464.142857142857Q11846.0 3421.142857142857 11846.0 3352.142857142857Q11846.0 3283.142857142857 11805.5 3240.142857142857Q11765.0 3197.142857142857 11700.0 3197.142857142857Q11635.0 3197.142857142857 11594.5 3240.142857142857Q11554.0 3283.142857142857 11554.0 3352.142857142857Q11554.0 3421.142857142857 11594.5 3464.142857142857Q11635.0 3507.142857142857 11700.0 3507.142857142857Z" fill="#87d787" transform="translate(16,0) scale(0.014000)"/>
<path d="M12153.0 3457.142857142857Q12089.0 3457.142857142857 12051.5 3420.642857142857Q12014.0 3384.142857142857 12015.0 3322.142857142857V3257.142857142857Q12014.0 3195.142857142857 12051.5 3158.642857142857Q12089.0 3122.142857142857 12153.0 3122.142857142857Q12217.0 3122.142857142857 12254.5 3158.642857142857Q12292.0 3195.142857142857 12293.0 3257.142857142857V3322.142857142857Q12293.0 3384.142857142857 12255.5 3420.642857142857Q12218.0 3457.142857142857 12153.0 3457.142857142857ZM12014.0 3857.142857142857 12512.0 3127.142857142857H12586.0L12088.0 3857.142857142857ZM12154.0 3389.142857142857Q12184.0 3389.142857142857 12201.5 3371.142857142857Q12219.0 3353.142857142857 12219.0 3322.142857142857V3257.142857142857Q12219.0 3226.142857142857 12201.5 3208.142857142857Q12184.0 3190.142857142857 12154.0 3190.142857142857Q12124.0 3190.142857142857 12106.5 3208.142857142857Q12089.0 3226.142857142857 12089.0 3257.142857142857V3322.142857142857Q12089.0 3353.142857142857 12106.5 3371.142857142857Q12124.0 3389.142857142857 12154.0 3389.142857142857ZM12446.0 3862.142857142857Q12382.0 3862.142857142857 12344.5 3825.642857142857Q12307.0 3789.142857142857 12307.0 3727.142857142857V3662.142857142857Q12306.0 3600.142857142857 12344.0 3563.642857142857Q12382.0 3527.142857142857 12446.0 3527.142857142857Q12510.0 3527.142857142857 12547.5 3563.642857142857Q12585.0 3600.142857142857 12585.0 3662.142857142857V3727.142857142857Q12585.0 3789.142857142857 12547.5 3825.642857142857Q12510.0 3862.142857142857 12446.0 3862.142857142857ZM12446.0 3793.142857142857Q12476.0 3793.142857142857 12493.5 3775.642857142857Q12511.0 3758.142857142857 12511.0 3727.142857142857V3662.142857142857Q12511.0 3631.142857142857 12493.5 3613.142857142857Q12476.0 3595.142857142857 12445.0 3595.142857142857Q12416.0 3595.142857142857 12398.5 3613.142857142857Q12381.0 3631.142857142857 12381.0 3662.142857142857V3727.142857142857Q12380.0 3758.142857142857 12397.5 3775.642857142857Q12415.0 3793.142857142857 12446.0 3793.142857142857Z" fill="#87d787" transform="translate(16,0) scale(0.014000)"/>
<path d="M13293.0 3857.142857142857V3127.142857142857H13518.0Q13583.0 3127.142857142857 13632.0 3153.642857142857Q13681.0 3180.142857142857 13708.0 3227.142857142857Q13735.0 3274.142857142857 13735.0 3337.142857142857Q13735.0 3411.142857142857 13697.0 3464.142857142857Q13659.0 3517.142857142857 13596.0 3538.142857142857L13745.0 3857.142857142857H13646.0L13503.0 3547.142857142857H13382.0V3857.142857142857ZM13382.0 3466.142857142857H13518.0Q13574.0 3466.142857142857 13608.0 3430.642857142857Q13642.0 3395.142857142857 13642.0 3337.142857142857Q13642.0 3278.142857142857 13608.0 3243.142857142857Q13574.0 3208.142857142857 13518.0 3208.142857142857H13382.0Z" fill="#bcbcbc" transform="translate(16,0) scale(0.014000)"/>
<path d="M14101.0 3867.142857142857Q14031.0 3867.142857142857 13977.5 3837.642857142857Q13924.0 3808.142857142857 13894.0 3755.642857142857Q13864.0 3703.142857142857 13864.0 3634.142857142857Q13864.0 3586.142857142857 13882.0 3535.642857142857Q13900.0 3485.142857142857 13931.0 3430.142857142857L14100.0 3127.142857142857H14200.0L14020.0 3440.142857142857L14023.0 3442.142857142857Q14036.0 3425.142857142857 14062.0 3416.142857142857Q14088.0 3407.142857142857 14119.0 3407.142857142857Q14184.0 3407.142857142857 14232.5 3435.642857142857Q14281.0 3464.142857142857 14308.5 3514.142857142857Q14336.0 3564.142857142857 14336.0 3630.142857142857Q14336.0 3700.142857142857 14306.0 3753.642857142857Q14276.0 3807.142857142857 14223.5 3837.142857142857Q14171.0 3867.142857142857 14101.0 3867.142857142857ZM14100.0 3787.142857142857Q14165.0 3787.142857142857 14205.5 3744.142857142857Q14246.0 3701.142857142857 14246.0 3632.142857142857Q14246.0 3563.142857142857 14205.5 3520.142857142857Q14165.0 3477.142857142857 14100.0 3477.142857142857Q14035.0 3477.142857142857 13994.5 3520.142857142857Q13954.0 3563.142857142857 13954.0 3632.142857142857Q13954.0 3701.142857142857 13994.5 3744.142857142857Q14035.0 3787.142857142857 14100.0 3787.142857142857Z" fill="#dadada" transform="translate(16,0) scale(0.014000)"/>
<path d="M14700.0 3867.142857142857Q14663.0 3867.142857142857 14640.5 3845.142857142857Q14618.0 3823.142857142857 14618.0 3788.142857142857Q14618.0 3751.142857142857 14640.5 3728.142857142857Q14663.0 3705.142857142857 14700.0 3705.142857142857Q14737.0 3705.142857142857 14759.5 3728.142857142857Q14782.0 3751.142857142857 14782.0 3788.142857142857Q14782.0 3823.142857142857 14759.5 3845.142857142857Q14737.0 3867.142857142857 14700.0 3867.142857142857Z" fill="#dadada" transform="translate(16,0) scale(0.014000)"/>
<path d="M15195.0 3857.142857142857 15375.0 3544.142857142857 15372.0 3542.142857142857Q15362.0 3558.142857142857 15335.0 3567.642857142857Q15308.0 3577.142857142857 15276.0 3577.142857142857Q15213.0 3577.142857142857 15165.5 3548.642857142857Q15118.0 3520.142857142857 15091.0 3470.142857142857Q15064.0 3420.142857142857 15064.0 3354.142857142857Q15064.0 3283.142857142857 15094.0 3230.142857142857Q15124.0 3177.142857142857 15177.0 3147.142857142857Q15230.0 3117.142857142857 15299.0 3117.142857142857Q15370.0 3117.142857142857 15423.0 3146.642857142857Q15476.0 3176.142857142857 15506.0 3228.642857142857Q15536.0 3281.142857142857 15536.0 3350.142857142857Q15536.0 3398.142857142857 15518.0 3448.642857142857Q15500.0 3499.142857142857 15469.0 3554.142857142857L15300.0 3857.142857142857ZM15300.0 3507.142857142857Q15365.0 3507.142857142857 15405.5 3464.142857142857Q15446.0 3421.142857142857 15446.0 3352.142857142857Q15446.0 3283.142857142857 15405.5 3240.142857142857Q15365.0 3197.142857142857 15300.0 3197.142857142857Q15235.0 3197.142857142857 15194.5 3240.142857142857Q15154.0 3283.142857142857 15154.0 3352.142857142857Q15154.0 3421.142857142857 15194.5 3464.142857142857Q15235.0 3507.142857142857 15300.0 3507.142857142857Z" fill="#dadada" transform="translate(16,0) scale(0.014000)"/>
<path d="M15672.0 3857.142857142857V3127.142857142857H15805.0L15898.0 3443.142857142857L15995.0 3127.142857142857H16128.0V3857.142857142857H16041.0V3512.142857142857Q16041.0 3463.142857142857 16042.5 3399.642857142857Q16044.0 3336.142857142857 16047.0 3271.142857142857Q16050.0 3206.142857142857 16054.0 3154.142857142857L15936.0 3531.142857142857H15858.0L15745.0 3163.142857142857Q15753.0 3237.142857142857 15756.0 3325.142857142857Q15759.0 3413.142857142857 15759.0 3512.142857142857V3857.142857142857Z" fill="#dadada" transform="translate(16,0) scale(0.014000)"/>
<path d="M16907.0 3857.142857142857 16820.0 3127.142857142857H16903.0L16960.0 3667.142857142857Q16964.0 3700.142857142857 16966.0 3735.642857142857Q16968.0 3771.142857142857 16969.0 3792.142857142857Q16971.0 3771.142857142857 16974.5 3735.642857142857Q16978.0 3700.142857142857 16982.0 3667.142857142857L17054.0 3127.142857142857H17151.0L17217.0 3667.142857142857Q17221.0 3700.142857142857 17225.0 3735.642857142857Q17229.0 3771.142857142857 17231.0 3792.142857142857Q17233.0 3771.142857142857 17235.5 3735.642857142857Q17238.0 3700.142857142857 17242.0 3667.142857142857L17301.0 3127.142857142857H17380.0L17291.0 3857.142857142857H17178.0L17112.0 3307.142857142857Q17108.0 3273.142857142857 17106.0 3240.642857142857Q17104.0 3208.142857142857 17102.0 3190.142857142857Q17100.0 3208.142857142857 17098.0 3240.642857142857Q17096.0 3273.142857142857 17091.0 3307.142857142857L17020.0 3857.142857142857Z" fill="#bcbcbc" transform="translate(16,0) scale(0.014000)"/>
<path d="M17490.0 3857.142857142857V3775.142857142857H17688.0V3205.142857142857L17490.0 3353.142857142857V3250.142857142857L17655.0 3127.142857142857H17778.0V3775.142857142857H17940.0V3857.142857142857Z" fill="#dadada" transform="translate(16,0) scale(0.014000)"/>
<path d="M18300.0 3867.142857142857Q18199.0 3867.142857142857 18139.5 3808.642857142857Q18080.0 3750.142857142857 18080.0 3652.142857142857V3332.142857142857Q18080.0 3234.142857142857 18139.5 3175.642857142857Q18199.0 3117.142857142857 18300.0 3117.142857142857Q18401.0 3117.142857142857 18460.5 3175.642857142857Q18520.0 3234.142857142857 18520.0 3332.142857142857V3652.142857142857Q18520.0 3717.142857142857 18493.0 3765.642857142857Q18466.0 3814.142857142857 18416.5 3840.642857142857Q18367.0 3867.142857142857 18300.0 3867.142857142857ZM18300.0 3790.142857142857Q18360.0 3790.142857142857 18396.5 3751.642857142857Q18433.0 3713.142857142857 18433.0 3652.142857142857V3332.142857142857Q18433.0 3271.142857142857 18396.5 3232.642857142857Q18360.0 3194.142857142857 18300.0 3194.142857142857Q18240.0 3194.142857142857 18203.5 3232.642857142857Q18167.0 3271.142857142857 18167.0 3332.142857142857V3652.142857142857Q18167.0 3713.142857142857 18203.5 3751.642857142857Q18240.0 3790.142857142857 18300.0 3790.142857142857ZM18300.0 3547.142857142857Q18273.0 3547.142857142857 18256.5 3532.142857142857Q18240.0 3517.142857142857 18240.0 3489.142857142857Q18240.0 3462.142857142857 18256.5 3447.642857142857Q18273.0 3433.142857142857 18300.0 3433.142857142857Q18327.0 3433.142857142857 18343.5 3447.642857142857Q18360.0 3462.142857142857 18360.0 3489.142857142857Q18360.0 3517.142857142857 18343.5 3532.142857142857Q18327.0 3547.142857142857 18300.0 3547.142857142857Z" fill="#dadada" transform="translate(16,0) scale(0.014000)"/>
<path d="M18894.0 3867.142857142857Q18793.0 3867.142857142857 18734.0 3810.642857142857Q18675.0 3754.142857142857 18675.0 3657.142857142857H18765.0Q18765.0 3717.142857142857 18800.0 3752.142857142857Q18835.0 3787.142857142857 18895.0 3787.142857142857Q18955.0 3787.142857142857 18990.0 3752.142857142857Q19025.0 3717.142857142857 19025.0 3657.142857142857V3612.142857142857Q19025.0 3552.142857142857 18991.0 3517.142857142857Q18957.0 3482.142857142857 18899.0 3482.142857142857H18700.0V3127.142857142857H19089.0V3209.142857142857H18784.0L18786.0 3400.142857142857H18904.0Q19005.0 3400.142857142857 19060.0 3455.642857142857Q19115.0 3511.142857142857 19115.0 3612.142857142857V3657.142857142857Q19115.0 3754.142857142857 19055.5 3810.642857142857Q18996.0 3867.142857142857 18894.0 3867.142857142857Z" fill="#dadada" transform="translate(16,0) scale(0.014000)"/>
<path d="M19297.0 3857.142857142857V3127.142857142857H19387.0V3534.142857142857H19492.0L19646.0 3307.142857142857H19749.0L19572.0 3569.142857142857L19759.0 3857.142857142857H19654.0L19494.0 3612.142857142857H19387.0V3857.142857142857Z" fill="#dadada" transform="translate(16,0) scale(0.014000)"/>
<path d="M20650.0 4257.142857142857V2737.142857142857H20750.0V4257.142857142857Z" fill="#bcbcbc" transform="translate(16,0) scale(0.014000)"/>
<path d="M323.3518564356436 42.31559405940594 328.7169554455446 47.68069306930693Q329.0325495049505 47.977722772277225 329.0325495049505 48.42326732673267Q329.0325495049505 48.86881188118812 328.7169554455446 49.18440594059406Q328.40136138613866 49.5 327.9558168316832 49.5Q327.5102722772277 49.5 327.19467821782183 49.18440594059406L323.66745049504954 45.65717821782178V55.92326732673267Q323.66745049504954 56.368811881188115 323.3518564356436 56.68440594059406Q323.03626237623763 57.0 322.59071782178216 57.0Q322.14517326732675 57.0 321.8295792079208 56.68440594059406Q321.5139851485149 56.368811881188115 321.5139851485149 55.92326732673267V45.65717821782178L317.9867574257426 49.2029702970297Q317.6897277227723 49.51856435643565 317.2441831683169 49.51856435643565Q316.79863861386144 49.51856435643565 316.4830445544555 49.20297029702971Q316.16745049504954 48.88737623762376 316.16745049504954 48.44183168316832Q316.16745049504954 47.99628712871287 316.4830445544555 47.68069306930693L321.8295792079208 42.31559405940594Q322.14517326732675 42.0 322.59071782178216 42.0Q323.03626237623763 42.0 323.3518564356436 42.31559405940594Z" fill="#5fd7d7"/>
<path d="M23089.0 3867.142857142857Q22988.0 3867.142857142857 22929.0 3810.642857142857Q22870.0 3754.142857142857 22870.0 3657.142857142857H22960.0Q22960.0 3717.142857142857 22995.0 3752.142857142857Q23030.0 3787.142857142857 23090.0 3787.142857142857Q23150.0 3787.142857142857 23185.0 3752.142857142857Q23220.0 3717.142857142857 23220.0 3657.142857142857V3607.142857142857Q23220.0 3547.142857142857 23185.0 3512.142857142857Q23150.0 3477.142857142857 23090.0 3477.142857142857H23011.0V3399.142857142857L23190.0 3209.142857142857H22890.0V3127.142857142857H23292.0V3211.142857142857L23116.0 3398.142857142857Q23206.0 3405.142857142857 23258.0 3460.642857142857Q23310.0 3516.142857142857 23310.0 3607.142857142857V3657.142857142857Q23310.0 3754.142857142857 23250.5 3810.642857142857Q23191.0 3867.142857142857 23089.0 3867.142857142857Z" fill="#dadada" transform="translate(16,0) scale(0.014000)"/>
<path d="M23700.0 3867.142857142857Q23599.0 3867.142857142857 23539.5 3808.642857142857Q23480.0 3750.142857142857 23480.0 3652.142857142857V3332.142857142857Q23480.0 3234.142857142857 23539.5 3175.642857142857Q23599.0 3117.142857142857 23700.0 3117.142857142857Q23801.0 3117.142857142857 23860.5 3175.642857142857Q23920.0 3234.142857142857 23920.0 3332.142857142857V3652.142857142857Q23920.0 3717.142857142857 23893.0 3765.642857142857Q23866.0 3814.142857142857 23816.5 3840.642857142857Q23767.0 3867.142857142857 23700.0 3867.142857142857ZM23700.0 3790.142857142857Q23760.0 3790.142857142857 23796.5 3751.642857142857Q23833.0 3713.142857142857 23833.0 3652.142857142857V3332.142857142857Q23833.0 3271.142857142857 23796.5 3232.642857142857Q23760.0 3194.142857142857 23700.0 3194.142857142857Q23640.0 3194.142857142857 23603.5 3232.642857142857Q23567.0 3271.142857142857 23567.0 3332.142857142857V3652.142857142857Q23567.0 3713.142857142857 23603.5 3751.642857142857Q23640.0 3790.142857142857 23700.0 3790.142857142857ZM23700.0 3547.142857142857Q23673.0 3547.142857142857 23656.5 3532.142857142857Q23640.0 3517.142857142857 23640.0 3489.142857142857Q23640.0 3462.142857142857 23656.5 3447.642857142857Q23673.0 3433.142857142857 23700.0 3433.142857142857Q23727.0 3433.142857142857 23743.5 3447.642857142857Q23760.0 3462.142857142857 23760.0 3489.142857142857Q23760.0 3517.142857142857 23743.5 3532.142857142857Q23727.0 3547.142857142857 23700.0 3547.142857142857Z" fill="#dadada" transform="translate(16,0) scale(0.014000)"/>
<path d="M24300.0 3867.142857142857Q24199.0 3867.142857142857 24139.5 3808.642857142857Q24080.0 3750.142857142857 24080.0 3652.142857142857V3332.142857142857Q24080.0 3234.142857142857 24139.5 3175.642857142857Q24199.0 3117.142857142857 24300.0 3117.142857142857Q24401.0 3117.142857142857 24460.5 3175.642857142857Q24520.0 3234.142857142857 24520.0 3332.142857142857V3652.142857142857Q24520.0 3717.142857142857 24493.0 3765.642857142857Q24466.0 3814.142857142857 24416.5 3840.642857142857Q24367.0 3867.142857142857 24300.0 3867.142857142857ZM24300.0 3790.142857142857Q24360.0 3790.142857142857 24396.5 3751.642857142857Q24433.0 3713.142857142857 24433.0 3652.142857142857V3332.142857142857Q24433.0 3271.142857142857 24396.5 3232.642857142857Q24360.0 3194.142857142857 24300.0 3194.142857142857Q24240.0 3194.142857142857 24203.5 3232.642857142857Q24167.0 3271.142857142857 24167.0 3332.142857142857V3652.142857142857Q24167.0 3713.142857142857 24203.5 3751.642857142857Q24240.0 3790.142857142857 24300.0 3790.142857142857ZM24300.0 3547.142857142857Q24273.0 3547.142857142857 24256.5 3532.142857142857Q24240.0 3517.142857142857 24240.0 3489.142857142857Q24240.0 3462.142857142857 24256.5 3447.642857142857Q24273.0 3433.142857142857 24300.0 3433.142857142857Q24327.0 3433.142857142857 24343.5 3447.642857142857Q24360.0 3462.142857142857 24360.0 3489.142857142857Q24360.0 3517.142857142857 24343.5 3532.142857142857Q24327.0 3547.142857142857 24300.0 3547.142857142857Z" fill="#dadada" transform="translate(16,0) scale(0.014000)"/>
<path d="M372.2295792079207 56.68440594059406 366.8830445544554 51.33787128712871Q366.56745049504946 51.022277227722775 366.56745049504946 50.57673267326733Q366.56745049504946 50.13118811881188 366.8830445544554 49.81559405940594Q367.19863861386136 49.5 367.6441831683168 49.5Q368.08972772277224 49.5 368.38675742574253 49.81559405940594L371.9139851485148 53.34282178217822V43.07673267326733Q371.9139851485148 42.63118811881188 372.2295792079208 42.31559405940594Q372.5451732673267 42.0 372.99071782178214 42.0Q373.43626237623755 42.0 373.7518564356435 42.31559405940594Q374.06745049504946 42.63118811881188 374.06745049504946 43.07673267326733V53.34282178217822L377.59467821782175 49.81559405940594Q377.91027227722765 49.5 378.3558168316831 49.5Q378.8013613861386 49.5 379.1169554455445 49.81559405940594Q379.43254950495043 50.13118811881188 379.43254950495043 50.57673267326733Q379.43254950495043 51.022277227722775 379.1169554455445 51.33787128712871L373.7518564356435 56.68440594059406Q373.43626237623755 57.0 372.99071782178214 57.0Q372.5451732673267 57.0 372.2295792079207 56.68440594059406Z" fill="#5fd7d7"/>
<path d="M26689.0 3867.142857142857Q26588.0 3867.142857142857 26529.0 3810.642857142857Q26470.0 3754.142857142857 26470.0 3657.142857142857H26560.0Q26560.0 3717.142857142857 26595.0 3752.142857142857Q26630.0 3787.142857142857 26690.0 3787.142857142857Q26750.0 3787.142857142857 26785.0 3752.142857142857Q26820.0 3717.142857142857 26820.0 3657.142857142857V3607.142857142857Q26820.0 3547.142857142857 26785.0 3512.142857142857Q26750.0 3477.142857142857 26690.0 3477.142857142857H26611.0V3399.142857142857L26790.0 3209.142857142857H26490.0V3127.142857142857H26892.0V3211.142857142857L26716.0 3398.142857142857Q26806.0 3405.142857142857 26858.0 3460.642857142857Q26910.0 3516.142857142857 26910.0 3607.142857142857V3657.142857142857Q26910.0 3754.142857142857 26850.5 3810.642857142857Q26791.0 3867.142857142857 26689.0 3867.142857142857Z" fill="#dadada" transform="translate(16,0) scale(0.014000)"/>
<path d="M27195.0 3857.142857142857 27375.0 3544.142857142857 27372.0 3542.142857142857Q27362.0 3558.142857142857 27335.0 3567.642857142857Q27308.0 3577.142857142857 27276.0 3577.142857142857Q27213.0 3577.142857142857 27165.5 3548.642857142857Q27118.0 3520.142857142857 27091.0 3470.142857142857Q27064.0 3420.142857142857 27064.0 3354.142857142857Q27064.0 3283.142857142857 27094.0 3230.142857142857Q27124.0 3177.142857142857 27177.0 3147.142857142857Q27230.0 3117.142857142857 27299.0 3117.142857142857Q27370.0 3117.142857142857 27423.0 3146.642857142857Q27476.0 3176.142857142857 27506.0 3228.642857142857Q27536.0 3281.142857142857 27536.0 3350.142857142857Q27536.0 3398.142857142857 27518.0 3448.642857142857Q27500.0 3499.142857142857 27469.0 3554.142857142857L27300.0 3857.142857142857ZM27300.0 3507.142857142857Q27365.0 3507.142857142857 27405.5 3464.142857142857Q27446.0 3421.142857142857 27446.0 3352.142857142857Q27446.0 3283.142857142857 27405.5 3240.142857142857Q27365.0 3197.142857142857 27300.0 3197.142857142857Q27235.0 3197.142857142857 27194.5 3240.142857142857Q27154.0 3283.142857142857 27154.0 3352.142857142857Q27154.0 3421.142857142857 27194.5 3464.142857142857Q27235.0 3507.142857142857 27300.0 3507.142857142857Z" fill="#dadada" transform="translate(16,0) scale(0.014000)"/>
<path d="M27697.0 3857.142857142857V3127.142857142857H27787.0V3534.142857142857H27892.0L28046.0 3307.142857142857H28149.0L27972.0 3569.142857142857L28159.0 3857.142857142857H28054.0L27894.0 3612.142857142857H27787.0V3857.142857142857Z" fill="#dadada" transform="translate(16,0) scale(0.014000)"/>
<path d="M29050.0 4257.142857142857V2737.142857142857H29150.0V4257.142857142857Z" fill="#bcbcbc" transform="translate(16,0) scale(0.014000)"/>
<path d="M30275.0 3997.142857142857V3866.142857142857Q30181.0 3858.142857142857 30127.5 3805.642857142857Q30074.0 3753.142857142857 30072.0 3667.142857142857H30162.0Q30162.0 3716.142857142857 30191.5 3747.142857142857Q30221.0 3778.142857142857 30275.0 3785.142857142857V3523.142857142857L30248.0 3515.142857142857Q30173.0 3492.142857142857 30132.5 3438.142857142857Q30092.0 3384.142857142857 30092.0 3311.142857142857Q30092.0 3231.142857142857 30141.5 3179.142857142857Q30191.0 3127.142857142857 30275.0 3119.142857142857V2987.142857142857H30335.0V3118.142857142857Q30418.0 3126.142857142857 30468.0 3178.142857142857Q30518.0 3230.142857142857 30519.0 3312.142857142857H30429.0Q30429.0 3265.142857142857 30404.5 3235.642857142857Q30380.0 3206.142857142857 30335.0 3199.142857142857V3447.142857142857L30375.0 3460.142857142857Q30448.0 3483.142857142857 30488.0 3538.142857142857Q30528.0 3593.142857142857 30528.0 3667.142857142857Q30528.0 3749.142857142857 30475.5 3803.142857142857Q30423.0 3857.142857142857 30335.0 3866.142857142857V3997.142857142857ZM30182.0 3303.142857142857Q30182.0 3348.142857142857 30206.0 3381.142857142857Q30230.0 3414.142857142857 30275.0 3428.142857142857V3199.142857142857Q30231.0 3206.142857142857 30206.5 3233.142857142857Q30182.0 3260.142857142857 30182.0 3303.142857142857ZM30335.0 3785.142857142857Q30384.0 3777.142857142857 30411.0 3747.142857142857Q30438.0 3717.142857142857 30438.0 3669.142857142857Q30438.0 3625.142857142857 30414.5 3592.642857142857Q30391.0 3560.142857142857 30347.0 3546.142857142857L30335.0 3542.142857142857Z" fill="#bcbcbc" transform="translate(16,0) scale(0.014000)"/>
<path d="M30690.0 3857.142857142857V3775.142857142857H30888.0V3205.142857142857L30690.0 3353.142857142857V3250.142857142857L30855.0 3127.142857142857H30978.0V3775.142857142857H31140.0V3857.142857142857Z" fill="#dadada" transform="translate(16,0) scale(0.014000)"/>
<path d="M31500.0 3867.142857142857Q31463.0 3867.142857142857 31440.5 3845.142857142857Q31418.0 3823.142857142857 31418.0 3788.142857142857Q31418.0 3751.142857142857 31440.5 3728.142857142857Q31463.0 3705.142857142857 31500.0 3705.142857142857Q31537.0 3705.142857142857 31559.5 3728.142857142857Q31582.0 3751.142857142857 31582.0 3788.142857142857Q31582.0 3823.142857142857 31559.5 3845.142857142857Q31537.0 3867.142857142857 31500.0 3867.142857142857Z" fill="#dadada" transform="translate(16,0) scale(0.014000)"/>
<path d="M32089.0 3867.142857142857Q31988.0 3867.142857142857 31929.0 3810.642857142857Q31870.0 3754.142857142857 31870.0 3657.142857142857H31960.0Q31960.0 3717.142857142857 31995.0 3752.142857142857Q32030.0 3787.142857142857 32090.0 3787.142857142857Q32150.0 3787.142857142857 32185.0 3752.142857142857Q32220.0 3717.142857142857 32220.0 3657.142857142857V3607.142857142857Q32220.0 3547.142857142857 32185.0 3512.142857142857Q32150.0 3477.142857142857 32090.0 3477.142857142857H32011.0V3399.142857142857L32190.0 3209.142857142857H31890.0V3127.142857142857H32292.0V3211.142857142857L32116.0 3398.142857142857Q32206.0 3405.142857142857 32258.0 3460.642857142857Q32310.0 3516.142857142857 32310.0 3607.142857142857V3657.142857142857Q32310.0 3754.142857142857 32250.5 3810.642857142857Q32191.0 3867.142857142857 32089.0 3867.142857142857Z" fill="#dadada" transform="translate(16,0) scale(0.014000)"/>
<path d="M32800.0 3857.142857142857V3697.142857142857H32470.0V3556.142857142857L32736.0 3127.142857142857H32838.0L32560.0 3576.142857142857V3615.142857142857H32800.0V3437.142857142857H32890.0V3857.142857142857Z" fill="#dadada" transform="translate(16,0) scale(0.014000)"/>
<path d="M33301.0 3867.142857142857Q33231.0 3867.142857142857 33177.5 3837.642857142857Q33124.0 3808.142857142857 33094.0 3755.642857142857Q33064.0 3703.142857142857 33064.0 3634.142857142857Q33064.0 3586.142857142857 33082.0 3535.642857142857Q33100.0 3485.142857142857 33131.0 3430.142857142857L33300.0 3127.142857142857H33400.0L33220.0 3440.142857142857L33223.0 3442.142857142857Q33236.0 3425.142857142857 33262.0 3416.142857142857Q33288.0 3407.142857142857 33319.0 3407.142857142857Q33384.0 3407.142857142857 33432.5 3435.642857142857Q33481.0 3464.142857142857 33508.5 3514.142857142857Q33536.0 3564.142857142857 33536.0 3630.142857142857Q33536.0 3700.142857142857 33506.0 3753.642857142857Q33476.0 3807.142857142857 33423.5 3837.142857142857Q33371.0 3867.142857142857 33301.0 3867.142857142857ZM33300.0 3787.142857142857Q33365.0 3787.142857142857 33405.5 3744.142857142857Q33446.0 3701.142857142857 33446.0 3632.142857142857Q33446.0 3563.142857142857 33405.5 3520.142857142857Q33365.0 3477.142857142857 33300.0 3477.142857142857Q33235.0 3477.142857142857 33194.5 3520.142857142857Q33154.0 3563.142857142857 33154.0 3632.142857142857Q33154.0 3701.142857142857 33194.5 3744.142857142857Q33235.0 3787.142857142857 33300.0 3787.142857142857Z" fill="#dadada" transform="translate(16,0) scale(0.014000)"/>
<path d="M502.6808060766394 43.28628628628629 500.41979506562836 48.55655655655656H503.6893145851479Q503.9821073779407 48.58908908908909 504.22610137193465 48.751751751751755Q504.47009536592867 48.914414414414416 504.56769296352627 49.17467467467468Q504.79542069125404 49.792792792792795 504.30743270326604 50.21571571571572L496.8086839545173 56.78728728728729Q496.5646899605233 56.98248248248248 496.23936463519794 56.99874874874875Q495.91403930987263 57.01501501501502 495.6375127833461 56.81981981981982Q495.36098625681956 56.65715715715716 495.2796549254882 56.331831831831835Q495.19832359415693 56.00650650650651 495.32845372428704 55.68118118118118L497.5731984690318 50.44344344344344H494.3036789495123Q494.0108861567195 50.44344344344344 493.7668921627255 50.28078078078078Q493.5228981687315 50.11811811811812 493.4253005711339 49.82532532532533Q493.21383910967245 49.20720720720721 493.6855608313941 48.78428428428428L501.20057584640915 42.212712712712715Q501.4445698404032 42.01751751751752 501.7698951657285 42.001251251251254Q502.0952204910538 41.98498498498499 502.37174701758033 42.18018018018019Q502.9735988694322 42.60310310310311 502.6808060766394 43.28628628628629Z" fill="#5fd7d7"/>
<path d="M35595.0 3857.142857142857 35775.0 3544.142857142857 35772.0 3542.142857142857Q35762.0 3558.142857142857 35735.0 3567.642857142857Q35708.0 3577.142857142857 35676.0 3577.142857142857Q35613.0 3577.142857142857 35565.5 3548.642857142857Q35518.0 3520.142857142857 35491.0 3470.142857142857Q35464.0 3420.142857142857 35464.0 3354.142857142857Q35464.0 3283.142857142857 35494.0 3230.142857142857Q35524.0 3177.142857142857 35577.0 3147.142857142857Q35630.0 3117.142857142857 35699.0 3117.142857142857Q35770.0 3117.142857142857 35823.0 3146.642857142857Q35876.0 3176.142857142857 35906.0 3228.642857142857Q35936.0 3281.142857142857 35936.0 3350.142857142857Q35936.0 3398.142857142857 35918.0 3448.642857142857Q35900.0 3499.142857142857 35869.0 3554.142857142857L35700.0 3857.142857142857ZM35700.0 3507.142857142857Q35765.0 3507.142857142857 35805.5 3464.142857142857Q35846.0 3421.142857142857 35846.0 3352.142857142857Q35846.0 3283.142857142857 35805.5 3240.142857142857Q35765.0 3197.142857142857 35700.0 3197.142857142857Q35635.0 3197.142857142857 35594.5 3240.142857142857Q35554.0 3283.142857142857 35554.0 3352.142857142857Q35554.0 3421.142857142857 35594.5 3464.142857142857Q35635.0 3507.142857142857 35700.0 3507.142857142857Z" fill="#dadada" transform="translate(16,0) scale(0.014000)"/>
<path d="M36400.0 3857.142857142857V3697.142857142857H36070.0V3556.142857142857L36336.0 3127.142857142857H36438.0L36160.0 3576.142857142857V3615.142857142857H36400.0V3437.142857142857H36490.0V3857.142857142857Z" fill="#dadada" transform="translate(16,0) scale(0.014000)"/>
<path d="M36955.0 3857.142857142857Q36887.0 3857.142857142857 36846.0 3817.642857142857Q36805.0 3778.142857142857 36805.0 3712.142857142857V3389.142857142857H36647.0V3307.142857142857H36805.0V3152.142857142857H36895.0V3307.142857142857H37120.0V3389.142857142857H36895.0V3712.142857142857Q36895.0 3740.142857142857 36911.5 3757.642857142857Q36928.0 3775.142857142857 36955.0 3775.142857142857H37115.0V3857.142857142857Z" fill="#dadada" transform="translate(16,0) scale(0.014000)"/>
<path d="M37275.0 3967.142857142857 37630.0 3027.142857142857H37725.0L37370.0 3967.142857142857Z" fill="#dadada" transform="translate(16,0) scale(0.014000)"/>
<path d="M38078.0 3865.142857142857Q37986.0 3865.142857142857 37935.5 3823.642857142857Q37885.0 3782.142857142857 37885.0 3706.142857142857H37975.0Q37975.0 3744.142857142857 38002.0 3765.642857142857Q38029.0 3787.142857142857 38078.0 3787.142857142857H38122.0Q38172.0 3787.142857142857 38199.5 3765.142857142857Q38227.0 3743.142857142857 38227.0 3703.142857142857Q38227.0 3632.142857142857 38162.0 3623.142857142857L38010.0 3601.142857142857Q37954.0 3593.142857142857 37923.0 3554.642857142857Q37892.0 3516.142857142857 37892.0 3453.142857142857Q37892.0 3381.142857142857 37941.5 3340.142857142857Q37991.0 3299.142857142857 38078.0 3299.142857142857H38122.0Q38202.0 3299.142857142857 38252.5 3338.642857142857Q38303.0 3378.142857142857 38307.0 3442.142857142857H38216.0Q38214.0 3413.142857142857 38188.5 3394.142857142857Q38163.0 3375.142857142857 38122.0 3375.142857142857H38078.0Q38032.0 3375.142857142857 38006.0 3396.142857142857Q37980.0 3417.142857142857 37980.0 3453.142857142857Q37980.0 3511.142857142857 38033.0 3519.142857142857L38175.0 3539.142857142857Q38315.0 3559.142857142857 38315.0 3703.142857142857Q38315.0 3780.142857142857 38264.5 3822.642857142857Q38214.0 3865.142857142857 38122.0 3865.142857142857Z" fill="#dadada" transform="translate(16,0) scale(0.014000)"/>
</svg>